<svg version="1.1" id="Слой_1" xmlns="http://www.w3.org/2000/svg" xmlns:xlink="http://www.w3.org/1999/xlink" x="0px" y="0px" viewBox="0 0 345.4 365.5" style="enable-background:new 0 0 345.4 365.5;" xml:space="preserve">
<path fill="#000" d="M310.3,31.3C282.9,10,240.5,0,176.3,0H0v12.3h23.7c6.8,0.5,21.8,3.8,23.2,23.7v210.5H0v14.6h46.9v68.5
	c-1.3,18.9-14.8,22.9-22,23.6H0v12.3h179.7v-12.3h-24.9c-7.2-0.8-20.5-4.7-22-23.3v-68.8H299v-14.6H132.8v-37.2h51.3
	c41.3,0,91.5-6.1,120-24.6c35.2-22.3,41.3-55.2,41.3-77C345.4,81.5,339.3,53.6,310.3,31.3z M247.8,116.1c0,19,0,40.7-10.6,56.4
	C221,195.3,190.9,197,160.7,197h-27.9V12.3h33.5c24.6,0,51.3,0,67.5,16.7c13.4,14,14,33.5,14,47.4V116.1z"/>
</svg>
