<?xml version="1.0" encoding="utf-8"?><svg xmlns="http://www.w3.org/2000/svg" xmlns:xlink="http://www.w3.org/1999/xlink"><symbol viewBox="0 0 309.156 309.156" id="arrow-down"><path d="M288.461 64.929L154.589 202.766 20.723 64.94 0 85.07l154.589 159.158L309.156 85.07z"/></symbol><symbol viewBox="0 0 349.629 349.629" id="arrow-up"><path d="M174.827 73.433L0 253.42l23.434 22.77 151.393-155.872 151.389 155.878 23.413-22.776z"/></symbol><symbol viewBox="0 0 139.4 44.7" id="dorohovdesign"><path d="M52.2 19.5V8.1H57c3.6 0 6.1 2.1 6.1 5.7 0 3.5-2.6 5.7-6.1 5.7h-4.8zm7.9-5.7c0-1.8-1.1-3.1-3.1-3.1h-1.9v6.2H57c2 0 3.1-1.4 3.1-3.1m4.1 0c0-3.4 2.6-5.9 6.1-5.9 3.5 0 6.1 2.4 6.1 5.9 0 3.5-2.6 5.9-6.1 5.9-3.5 0-6.1-2.4-6.1-5.9m9.2 0c0-1.9-1.2-3.3-3.1-3.3-1.9 0-3.1 1.4-3.1 3.3 0 1.8 1.2 3.3 3.1 3.3 1.9 0 3.1-1.4 3.1-3.3m11 5.7l-1.9-3.8H81v3.8h-2.9V8.1h5.7c2.5 0 3.9 1.7 3.9 3.8 0 2-1.2 3-2.3 3.4l2.3 4.2h-3.3zm.3-7.6c0-.8-.6-1.2-1.4-1.2H81v2.4h2.3c.8 0 1.4-.4 1.4-1.2m4.2 1.9c0-3.4 2.6-5.9 6.1-5.9 3.5 0 6.1 2.4 6.1 5.9 0 3.5-2.6 5.9-6.1 5.9-3.5 0-6.1-2.4-6.1-5.9m9.1 0c0-1.9-1.2-3.3-3.1-3.3-1.9 0-3.1 1.4-3.1 3.3 0 1.8 1.2 3.3 3.1 3.3 1.9 0 3.1-1.4 3.1-3.3m12.4 5.7v-4.6h-4.7v4.6h-3V8.1h3v4.3h4.7V8.1h2.9v11.4zm4.6-5.7c0-3.4 2.6-5.9 6.1-5.9 3.5 0 6.1 2.4 6.1 5.9 0 3.5-2.6 5.9-6.1 5.9-3.5 0-6.1-2.4-6.1-5.9m9.2 0c0-1.9-1.2-3.3-3.1-3.3-1.9 0-3.1 1.4-3.1 3.3 0 1.8 1.2 3.3 3.1 3.3 1.9 0 3.1-1.4 3.1-3.3m7.3 5.7l-4.3-11.4h3.3l2.8 8.2 2.8-8.2h3.3l-4.2 11.4zm-79.3 17V25.1H57c3.6 0 6.1 2.1 6.1 5.7 0 3.5-2.6 5.7-6.1 5.7h-4.8zm7.9-5.7c0-1.8-1.1-3.1-3.1-3.1h-1.9v6.2H57c2 0 3.1-1.4 3.1-3.1m4.7 5.7V25.1h8.3v2.6h-5.3v1.8H73V32h-5.2v1.9h5.3v2.6zm9.6-1.6l1.5-2.2c.8.8 2.1 1.5 3.6 1.5 1 0 1.6-.4 1.6-.9 0-1.5-6.4-.3-6.4-4.7 0-1.9 1.6-3.6 4.5-3.6 1.8 0 3.4.5 4.6 1.6l-1.6 2.1c-1-.8-2.2-1.2-3.3-1.2-.8 0-1.2.3-1.2.8 0 1.4 6.4.4 6.4 4.6 0 2.3-1.7 3.8-4.7 3.8-2.2 0-3.8-.7-5-1.8m11.5-9.8h2.9v11.3h-2.9zm4.7 5.7c0-3.6 2.8-5.9 6.1-5.9 2.5 0 4.1 1.3 4.8 2.8L99.1 29c-.4-.7-1.3-1.4-2.4-1.4-1.9 0-3.2 1.4-3.2 3.3s1.3 3.3 3.2 3.3c.8 0 1.7-.3 2.1-.7v-.9h-2.6V30h5.5v4.5c-1.2 1.3-2.9 2.2-5 2.2-3.4 0-6.1-2.3-6.1-5.9m20.9 5.7l-4.8-6.6v6.6h-2.9V25.1h3l4.6 6.3v-6.3h2.9v11.4zM17.7 0H0v44.7h17.8c15 0 24.6-8.8 24.6-22.4C42.4 8.7 32.7 0 17.7 0m-.4 35.7h-8V9.5h8c9.3 0 15.7 3.7 15.7 12.7.1 7.5-5.8 13.5-15.7 13.5"/><path d="M19.1 17H17v10.6h2c4 0 6.4-2.4 6.4-5.4 0-3.7-2.6-5.2-6.3-5.2"/></symbol><symbol viewBox="0 0 124.099 124.1" id="email"><path d="M18.25 106.7c5.6 5.399 12.3 9.8 20.1 12.8 7.8 3 16.5 4.6 25.9 4.6 10.5 0 20.2-1.6 28.9-4.899 7.9-2.9 1.1-17.601-4.7-15.2-6.399 2.7-14.2 4.1-23.101 4.1-7 0-13.399-1.1-19-3.199-5.6-2.101-10.5-5.101-14.5-9-4-3.9-7.2-8.7-9.4-14.2-2.3-5.601-3.4-12-3.4-19 0-6.6 1.1-12.9 3.3-18.5 2.2-5.6 5.2-10.6 9.2-14.6 3.9-4.1 8.7-7.4 14.2-9.7 5.5-2.3 11.7-3.5 18.5-3.5 6.301 0 12.1.9 17.301 2.5 5.1 1.6 9.5 4.1 13.199 7.4 3.7 3.3 6.6 7.3 8.7 12.1 2.101 4.8 3.101 10.4 3.101 16.8 0 3.7-.4 7.2-1.201 10.5-.799 3.1-1.799 5.899-3.199 8.1-1.301 2.101-2.801 3.8-4.6 5-2.101 1.4-5.201 2.2-7.601 1.4-3-1-2.399-5.2-2.2-7.7.301-3.4 1.2-6.6 1.9-9.9 1.1-5.4 2.3-10.7 3.4-16 .6-2.9 1.299-5.9 1.899-8.8.8-3.7-2-7.3-5.899-7.3h-4.4c-2.7 0-5.1 1.8-5.801 4.4-.299 1.2-.6 2.2-.6 2.2-2.199-6.8-10.3-8.7-16.7-8.6-8.4.1-16.1 4.4-21.7 10.5-.5.6-1.1 1.2-1.6 1.8-2.9 3.5-5.1 7.6-6.6 11.9-1.6 4.6-2.4 9.3-2.4 14.1 0 4.101.6 8 1.7 11.5 1.2 3.601 2.9 6.7 5.1 9.3 2.2 2.601 5 4.7 8.3 6.2 3.3 1.5 7 2.3 11 2.3 3 0 5.8-.5 8.3-1.399 2.4-.9 4.6-2 6.5-3.3 1.5-1 2.9-2.2 4-3.301.699 1.301 1.5 2.4 2.6 3.5 2.801 3 7.1 4.5 12.801 4.5 4.5 0 8.899-.899 13-2.699 4.1-1.801 7.799-4.601 10.899-8.2 3-3.601 5.5-8 7.3-13.2 1.801-5.2 2.7-11.2 2.7-17.8 0-9-1.7-17-5-23.7s-7.8-12.4-13.399-16.9c-5.5-4.5-11.9-7.8-19-10.1C79.05 1.1 71.75 0 64.25 0c-8.7 0-17 1.6-24.7 4.7-7.7 3.2-14.5 7.6-20.2 13.1-5.8 5.5-10.4 12.2-13.7 19.7-3.3 7.5-5 15.9-5 24.7 0 8.899 1.5 17.3 4.6 24.8 3 7.6 7.4 14.2 13 19.7zm54.099-42c-.699 2.7-1.699 5.3-3.1 7.7-1.4 2.3-3.1 4.199-5.3 5.699-2 1.4-4.4 2.101-7.4 2.101-1.9 0-3.4-.4-4.5-1.101-1.2-.8-2.2-1.8-2.9-3.1-.8-1.4-1.3-2.9-1.6-4.4-.3-1.6-.5-3.1-.5-4.399 0-2.8.4-5.6 1.2-8.5.8-2.8 1.9-5.4 3.4-7.6 1.5-2.2 3.2-4 5.3-5.4 1.9-1.3 4-1.9 6.5-1.9 2 0 3.601.3 4.8 1 1.2.7 2.2 1.6 2.9 2.7.8 1.2 1.3 2.6 1.699 4.1.4 1.7.601 3.5.601 5.2-.1 2.5-.399 5.1-1.1 7.9z"/></symbol><symbol viewBox="0 0 96.124 96.123" id="fb"><path d="M72.089.02L59.624 0C45.62 0 36.57 9.285 36.57 23.656v10.907H24.037a1.96 1.96 0 0 0-1.96 1.961v15.803a1.96 1.96 0 0 0 1.96 1.96H36.57v39.876a1.96 1.96 0 0 0 1.96 1.96h16.352a1.96 1.96 0 0 0 1.96-1.96V54.287h14.654a1.96 1.96 0 0 0 1.96-1.96l.006-15.803a1.963 1.963 0 0 0-1.961-1.961H56.842v-9.246c0-4.444 1.059-6.7 6.848-6.7l8.397-.003a1.96 1.96 0 0 0 1.959-1.96V1.98A1.96 1.96 0 0 0 72.089.02z"/></symbol><symbol viewBox="0 0 97.395 97.395" id="inst"><path d="M12.501 0h72.393c6.875 0 12.5 5.09 12.5 12.5v72.395c0 7.41-5.625 12.5-12.5 12.5H12.501C5.624 97.395 0 92.305 0 84.895V12.5C0 5.09 5.624 0 12.501 0zm58.447 10.821a4.395 4.395 0 0 0-4.383 4.385v10.495a4.396 4.396 0 0 0 4.383 4.385h11.008a4.398 4.398 0 0 0 4.385-4.385V15.206a4.397 4.397 0 0 0-4.385-4.385H70.948zm15.439 30.367h-8.572a28.486 28.486 0 0 1 1.25 8.355c0 16.2-13.556 29.332-30.275 29.332-16.718 0-30.272-13.132-30.272-29.332 0-2.904.438-5.708 1.25-8.355h-8.945v41.141a3.884 3.884 0 0 0 3.872 3.872h67.822a3.883 3.883 0 0 0 3.872-3.872V41.188h-.002zM48.789 29.533c-10.802 0-19.56 8.485-19.56 18.953s8.758 18.953 19.56 18.953c10.803 0 19.562-8.485 19.562-18.953s-8.758-18.953-19.562-18.953z"/></symbol><symbol viewBox="-140 380.1 314.2 81.8" id="logotip"><path d="M-106.6 426.7c3.7-14.5 12.1-20.3 16.6-21.6 2-.6 3.9-.9 5.5-.9 3.2.1 5.5 1.2 7 2.8l.3.3h-.1c.7.7 1.2 1.5 1.6 2.4-1.9.1-4.2-.9-7.2-.9-12.1 0-21.2 14.3-21.2 28.7 0 7.9 3.5 14.5 12.5 15.2.6.1 1.2.1 1.9.1.5 0 .9 0 1.4-.1 7.7-.9 13.7-8 13.7-16 0-5.5-3-9.5-7.6-9.5-3.9 0-7.2 3.5-7.2 7.1 0 2.4 1.2 4.1 3 4.1 1.5 0 2.3-1.3 2.3-2.5 0-1.8-1.2-2.8-2.7-3.2-.1 0-1-.1-1.1-.1-.3 0-.7.1-1.1.1.3-1.3 1.2-2.6 2.4-3.7v-.1c1.2-.9 2.6-1.5 4.1-1.5 5.1 0 7.5 4.3 7.5 9.3 0 8.5-7 15.7-14.9 15.7h-.7c-7.3-.5-8.9-7-8.9-13.7 0-13 6.3-27 14.4-29.3.8-.2 1.5-.3 2.3-.3 6.5 0 11.2 10 10.4 14.3-.2 1.2-.5 1.8-.5 1.8-.1.1-1.2 3.4-1.2 4 1 .3 1.8.2 2.9.1.1 0 .1.1.1.1-.7.6-1.7.7-2.6.5.7 1.5 2.2 4.5 2.8 5.1 1 1.4 1.2 1.9 2 2.6 1 .9-.4 1.6-1.1 2-.7.5-1.3.7-1.6 1.2-.9 1.6.2 2.7.8 3 .6.3-.1 1.3-.7 1.7-.6.5-2.2 1.1-2.2 1.1s1.6.1 2 1.2c.4 1.1-.2 1.5-.7 1.8-.5.3-1.2 1.1-1 2.6.3 1.4.4 2.9-1 4.3s-5.1.3-7.7-.6c-2.4-.8-5.1.3-6.4 1.6-1.1 1.1-1.3 2.8-1 3.6-3.1-1-24.4-6.3-17.1-34.4m-3.7-46.6v.3c0 .9 3.2.7 6.4 1.6 3.9 1 4.5 3.1 4.3 5.3-.1 1.6-1.2 6.1-2.2 8.5-8.1 22.1-15.6 41.4-17.8 47.2-8 20.8-20.4 16.6-20.4 18.5v.3h18.4s12.5 1.2 9.7-16.6c.4 2.2 2 8.9 5.5 13.5 2.3 3.1 7.2 3.1 7.2 3.1H-82s12.6 0 12.9-9.1c.1-1.3 2 .9 3.9 3.5 2.7 3.6 6.7 5.7 11 5.7h14v-.5c0-1.4-10.9 1.3-14.7-10.5l-23.4-66.1s-.9-2.4-2.3-3.5c-1.5-1.1-4.5-1.1-4.5-1.1h-25.2v-.1zm92.1 43.8c0 .1-.1.2-.1.3-1.9 3.1-3.5 7-4.7 11.6 1 .3 1.5.6 1.5.9 0 .2-.1.3-.3.3 0 0-.2-.1-.6-.2s-.6-.2-.7-.3c-.6 2.6-.9 4.7-.9 6.3 0 .7.1 1.2.3 1.2.2 0 .5-.1.8-.4.3-.3.5-.4.6-.4.2 0 .3.1.3.3 0 .3-.2.5-.7.7-.4.3-.8.4-1.1.4-.8 0-1.3-.7-1.3-2.1 0-1.4.3-3.5.8-6.2-1.2-.1-2.4-.3-3.9-.3-.7.8-1.6 1.8-2.6 3-1.8 1.9-3.1 3.2-4.1 3.9-1.7 1.2-3.5 1.8-5.2 1.8-1.2 0-2.2-.3-2.8-.8-.9-.5-1.3-1.4-1.3-2.6 0-1.3.5-2.4 1.6-3.5.9-.9 2.1-1.6 3.5-2 2.2-.6 5.7-.9 10.6-.9 1.4-1.7 2.8-3.5 4.3-5.4.4-.5 1-1.4 1.8-2.5.1-.1.2-.1.3-.1.3 0 .4.1.4.4 0 .1 0 .1-.1.2-.1.2-.8 1.1-2 2.7-1.4 1.9-2.6 3.5-3.5 4.6 1.1.1 2.2.2 3.3.5.6-2.8 1.4-5.4 2.4-7.9.3-.7.7-1.6 1.4-2.9.1-.1.4-.4.9-.7.5-.3.9-.5 1-.5-.1.3.1.4.1.6m-6.5 9.3H-26c-5.1 0-8.8.4-11.5 1-1.4.5-2.7 1.2-3.8 2.2-1.3 1.2-1.8 2.4-1.8 3.9 0 1 .5 1.7 1.3 2.2.6.5 1.5.6 2.6.6 2.3 0 4.4-.7 6.6-2.2 1.4-.9 3.2-2.5 5.2-4.8.8-.9 1.8-1.8 2.7-2.9m12.6 4l-2.1 2.7c-.7.8-1.2 1.5-1.6 1.9-.6.6-1.2.9-1.8 1.2-.5.2-1 .2-1.4 0-.4-.2-.7-.5-.8-1.1-.1-.5-.2-1.2 0-2.1.1-.4.2-.7.3-.9.2-.1.3-.2.5-.2s.4.1.5.2c.1.1.3.3.3.4-.3.9-.5 1.6-.5 2.2 0 .5.1.9.5 1 .3.1.7 0 1.2-.4.5-.3 1.2-1 1.8-2 .1-.2.4-.5.7-1 .3-.5.9-1.1 1.5-1.8.2-.3.4-.5.6-.7.2-.2.5-.5.9-1.1.1-.1.3-.2.5-.2.5 0 .7.3.7.7 0 .1-.1.3-.1.4-1.2 2-1.8 3.7-1.8 4.8 0 .8.4 1.3 1.2 1.3.6 0 1.3-.3 2-.9.5-.4 1-1 1.6-1.8.5-.6.7-.9.8-.9.1 0 .1.1.1.2s-.1.3-.2.5c-1.5 2.5-3.1 3.7-4.7 3.7-1.3 0-1.9-.8-1.9-2.4.2-1.4.6-2.6 1.2-3.7m9 .2c-.4.7-.7 1.5-1 2.3-.3.8-.5 1.4-.5 1.8 0 .7.3 1.2 1.1 1.2.5 0 1-.2 1.6-.6s1.1-.8 1.6-1.4c-.5.1-1.1-.1-1.4-.3-.4-.3-.6-.7-.6-1.4-.1-.4 0-.7.2-1.2.2-.3.5-.7.7-.9.3-.3.7-.4 1.1-.5.4-.1.7-.1 1.1 0 .3.1.6.3.7.7.2.3.3.9.2 1.5 0 .3-.1.6-.2.9.5-.3 1-.5 1.4-.9.5-.3.9-.7 1.2-1.1l.4.1c-.1.2-.3.5-.5.7-.2.3-.5.5-.8.7-.3.3-.7.5-1 .7-.4.2-.7.4-1.2.5-.3.4-.6.7-.9 1.1-.4.3-.8.6-1.2.8-.4.3-.9.5-1.4.6-.5.1-.9.3-1.4.3-1.3.1-1.9-.5-1.9-1.9 0-.6.1-1.3.3-2 .2-.7.5-1.5.8-2.2.3-.7.7-1.4 1.1-2.1.4-.7.7-1.2 1.2-1.7.1-.1.2-.1.3-.1s.3.1.5.2c.1.1.3.2.4.3.1.1.1.3.1.4 0 .1-.1.3-.1.3-.1.1-.2.3-.4.6s-.4.5-.6.9l-.6.9c-.2.6-.3.8-.3.8m3.4 2.3c.3-.5.3-.9.3-1.2 0-.3-.1-.5-.3-.7-.2-.1-.5-.2-.7-.2-.3 0-.5.1-.8.3-.3.1-.4.3-.5.6-.1.3-.1.5 0 .9.1.3.3.5.7.7.3.1.7.1 1.2-.1.1-.1.1-.1.1-.2v-.1m18-11.5c-.3.4-.9.8-1.6 1.1-.7.3-2 .5-3.5.6-.9.1-1.8.3-2.6.9-.8.6-1.6 1.6-2.4 2.8-.4.6-.7 1.2-.9 1.6s-.4.7-.6 1.1c-.1.3-.3.6-.4.9-.1.3-.2.6-.3 1 .5-1 1.2-2 2-2.8 1.1-1.2 2-1.8 2.8-1.8.7 0 1 .5 1 1.4 0 1.4-.4 2.9-1.3 4.7-.5 1.2-1.4 2.2-2.2 3.1-1.1 1-2.2 1.6-3.4 1.6-.9 0-1.4-.1-1.4-.5 0-.1.1-.2.2-.2s.2.1.5.1.5.1.7.1c1 0 2-.5 2.9-1.7.7-.9 1.4-1.8 1.8-3 .4-1 .6-2.1.6-3.3 0-.7-.1-1.1-.5-1.1-.7 0-1.7 1-2.9 3-1.2 1.9-1.7 3.3-1.7 4.2 0 .3.1.4.3.5l.3.3c0 .1-.1.1-.1.1-.8 0-1.2-.6-1.2-1.8 0-.9.2-1.9.7-3.1.5-1.2 1-2.4 1.8-3.7.7-1.2 1.6-2.4 2.6-3.4.9-1 2-1.8 3-2.2.5-.2 1-.4 1.5-.5.5-.1.9-.2 1.3-.3.4-.1.7-.1 1-.2.3-.1.6-.1.8-.3.3-.1.6-.3.8-.4s.4-.2.5-.3c.1 0 .2.1.2.3-.1.3-.2.7-.3 1.2m5.4 10.7c0 .1-.1.3-.2.5-.6 1-1.4 1.9-2.2 2.6-1.1.9-2 1.4-3 1.4-1.2 0-1.8-.7-1.8-2.3 0-.3.1-1 .5-2.1-.7 1.2-1.3 1.8-1.5 2.1-.7.9-1.4 1.3-2 1.3-.7 0-1.1-.6-1.1-1.8 0-.7.2-1.6.7-2.6.5-1.2 1.1-1.7 1.6-1.7.3 0 .5.1.5.3 0 0-.3.5-.8 1.5-.5.9-.8 1.8-.8 2.2 0 .7.2 1.1.6 1.1.7 0 2-1.6 3.8-4.8.1-.3.4-.7.7-1.3.1-.2.3-.3.5-.3s.4.1.5.3c.1.1.3.3.3.6 0 0-.4.7-1.2 2.2s-1.2 2.6-1.2 3.5c0 .7.3 1.2 1.1 1.2.6 0 1.4-.3 2.1-1.1.5-.5 1.2-1.2 1.8-2 .5-.7.9-1.1.9-1.1.2.1.2.1.2.3M29 437c.1-.1.1-.2.2-.3.1-.1.1-.3.2-.5s.1-.3.2-.5c.1-.1.1-.3.2-.3.1-.1.3-.2.5-.2.5 0 .7.3.7.7 0 .1-.1.3-.1.4-1.2 2-1.8 3.7-1.8 4.8 0 .8.4 1.3 1.2 1.3.6 0 1.3-.3 2-.9.5-.4 1-1 1.6-1.8.5-.6.7-.9.8-.9s.1.1.1.2-.1.3-.2.5c-1.5 2.5-3.1 3.7-4.7 3.7-1.3 0-1.9-.8-1.9-2.4 0-.9.1-1.7.4-2.5-.5.1-1.1.3-1.6.5s-1.2.4-1.7.6c-.1.2-.1.3-.1.5-.1.1-.1.3-.1.5-.2 1-.4 1.8-.6 2.1-.2.4-.5.5-.7.5s-.3-.2-.3-.6c0-.1 0-.2.1-.3.3-.5.5-1.2.7-2 .3-.8.5-1.7.7-2.8.1-.2.1-.4.1-.7.1-.3.1-.5.2-.9.1-.1.2-.3.5-.5.3-.1.5-.2.7-.2.1 0 .2.1.2.2s-.1.5-.3 1-.4 1.4-.7 2.4c.3-.1.7-.2 1.2-.4.4-.1.9-.3 1.6-.5.1 0 .4-.1.7-.2-.3 0-.1-.2 0-.5m21.7 2c0 .2-.1.3-.2.5-2 2.6-3.7 4-5.2 4-1.2 0-1.8-.7-1.8-2 0-.5.2-1.4.5-2.4-.7.5-1.5 1-2.4 1.4-.3.4-.6.7-.9 1.1-.4.3-.8.6-1.2.8-.4.3-.9.5-1.4.6s-.9.3-1.4.3c-1.3.1-1.9-.5-1.9-1.9 0-.6.1-1.3.3-2 .2-.7.5-1.5.8-2.2.3-.7.7-1.4 1.1-2.1.4-.7.7-1.2 1.2-1.7.1-.1.2-.2.3-.1s.3.1.5.2c.1.1.3.2.4.3.1.1.1.3.1.4s-.1.2-.1.3c-.1.1-.2.3-.4.6s-.4.5-.6.9l-.6.9c-.2.3-.3.5-.4.5-.4.7-.7 1.5-1 2.3-.3.8-.5 1.4-.5 1.8 0 .7.3 1.2 1.1 1.2.5 0 1-.2 1.6-.6.6-.4 1.1-.8 1.6-1.4-.5.1-1.1-.1-1.4-.3-.4-.3-.6-.7-.6-1.4-.1-.4.1-.7.2-1.2.2-.3.5-.7.7-.9.3-.3.7-.4 1.1-.5s.7-.1 1.1 0c.3.1.6.3.7.7.2.3.3.9.2 1.5 0 .3-.1.6-.2.9.5-.2.9-.5 1.3-.7.4-.3.8-.6 1.1-.9.1-.3.3-.6.5-.8.1-.3.3-.5.5-.7.1-.2.3-.3.5-.3s.4.1.5.3c.1.2.3.3.3.5 0 .1-.1.3-.1.3-1.1 1.8-1.6 3.2-1.6 4.3 0 .8.3 1.2.9 1.2s1.4-.3 2.2-1.1l.8-.8c.3-.3.6-.7.9-1.1l.9-1.1c-.1.1 0 .2 0 .4m-9.6.7c.3-.5.3-.9.3-1.2 0-.3-.1-.5-.3-.7-.2-.1-.5-.2-.7-.2-.3 0-.5.1-.8.3-.3.1-.4.3-.5.6-.1.3-.1.5 0 .9.1.3.3.5.7.7.3.1.7.1 1.2-.1.1-.1.1-.1.1-.2-.1 0-.1-.1 0-.1m37.1-12.2c0 1.5-.8 2.8-2.5 4.1-1.6 1.2-3.1 1.8-4.7 1.8s-2.4-.6-2.4-1.8c0-.9.2-1.4.6-1.4.1 0 .2.1.2.3v.6c0 .9.5 1.3 1.7 1.3s2.5-.5 4-1.7 2.2-2.2 2.2-3.3-.9-1.6-2.7-1.6c-.4 0-.7 0-1.1.1-1.9.2-4.1 1-6.5 2.4s-4.5 3.1-6 4.9c-1.8 2.1-2.7 4.1-2.7 6.1 0 1.2.4 2.2 1.2 2.8.7.5 1.7.9 3 .9 4 0 7.9-1.6 11.7-4.7.1-.1.2-.1.3-.1.3 0 .4.1.4.4 0 .1-.1.2-.1.3-1.6 1.5-3.5 2.7-5.7 3.8-2.4 1.2-4.6 1.7-6.6 1.7-1.6 0-2.9-.3-3.9-1-1.2-.7-1.8-1.9-1.8-3.5 0-1.8.7-3.8 2.2-5.9 1.8-2.5 4-4.6 6.8-6.3 3-1.8 5.9-2.8 8.8-2.8 2.4.1 3.6.9 3.6 2.6m7.8 11.6c0 .1-.1.3-.2.5-.9 1.6-1.9 2.6-2.8 3-.4.2-.8.3-1.2.3-1.4 0-2-.9-2-2.8 0-.3 0-.6.1-1-1.5 2.6-2.8 3.9-3.9 3.9-.7 0-1-.4-1-1.2 0-1.2.5-2.5 1.6-4.1s2.2-2.6 3.2-3c.4-.1.7-.2 1.1-.2.8 0 1.4.3 1.7.8.1.1.1.2.1.2s-.1.1-.2.1c-.1.1-.3.1-.3.2-.5.9-.8 2.2-.8 3.9 0 1.6.3 2.4 1 2.4.5 0 1.2-.5 2-1.6.9-1.1 1.4-1.6 1.4-1.6.2 0 .2.1.2.2m-4.9-3.5h-.3c-.9 0-1.8.5-2.8 1.7-1.4 1.6-2 3-2 4 0 .5.1.7.5.7.5 0 1.1-.5 1.9-1.5 1.1-1.4 2-3 2.7-4.9m12 1.4c-.5.9-.9 1.8-1.4 2.8-.5.9-.9 1.6-1.4 2-.6.6-1.2.9-1.8 1.2-.5.2-1 .2-1.4 0-.4-.2-.7-.5-.8-1.1-.1-.5-.2-1.2 0-2.1.1-.4.2-.7.3-.9.2-.1.3-.2.5-.2s.4.1.5.2c.1.1.3.3.3.4-.3.9-.5 1.6-.5 2.2 0 .5.1.9.5 1 .3.1.7 0 1.2-.4.5-.3 1.2-1 1.8-2 .3-.3.5-.8.8-1.4.3-.6.7-1.4.9-2.6.8-.4 1.4-.6 1.8-.6.3 0 .5.1.6.4 0 .3-.1.7-.3 1.2s-.4.9-.7 1.5-.5 1-.7 1.5-.3.9-.3 1.2c.1-.1.2-.3.3-.5.2-.2.4-.5.7-.8.3-.3.5-.7.9-1 .3-.4.7-.7 1-1.2.4-.5 1.2-1.3 2-2.2.1-.1.2-.1.3-.2.1-.1.2-.1.3-.1.5 0 .7.3.7.7 0 .1-.1.3-.1.4-1.2 2-1.8 3.7-1.8 4.8 0 .8.4 1.3 1.2 1.3.6 0 1.3-.3 2-.9.5-.4 1-1 1.6-1.8.5-.6.7-.9.8-.9s.1.1.1.2-.1.3-.2.5c-1.5 2.5-3.1 3.7-4.7 3.7-1.3 0-1.9-.8-1.9-2.4 0-.7.1-1.4.2-2 .1-.6.3-1.2.7-1.7-.5.4-.8.8-1.2 1.3-.3.4-.7.9-1.2 1.5-.2.3-.4.5-.6.8-.2.3-.4.5-.6.7-.2.2-.4.4-.6.5-.2.1-.4.1-.6 0-.3-.1-.3-.5-.2-1s.3-1 .5-1.6c.2-.5.4-1.1.6-1.6.2-.5.3-.7.2-.8h-.3c0-.2 0-.1 0 0m18.8 2.3c0 .1 0 .1 0 0-.4.6-.8 1-1.5 1.5-.6.4-1.2.5-1.8.5-.5 0-.9-.1-1.2-.3-1 1.6-2 2.4-3.1 2.4-.7 0-1.2-.5-1.2-1.4 0-1.3.5-2.7 1.6-4.4-.1-.3-.1-.5-.1-.7 0-.8.3-1.6.8-2.3s1.2-1.2 2-1.2c.5 0 .9.3 1.2.9.3.5.3 1 .3 1.6 0 1.2-.5 2.7-1.4 4.5.3.2.7.3 1.2.3.7 0 1.4-.3 2-.9.6-.5.9-.9.9-.9.3.1.3.2.3.4m-5 1.3c-.7-.5-1.3-1-1.6-1.7-.7 1.4-1 2.4-1 3 0 .5.1.7.5.7s.7-.3 1.2-.8c.4-.4.7-.8.9-1.2m1.1-3.9c0-.5-.1-.9-.2-1.5-.2-.7-.5-1.1-.9-1.1-.5 0-.9.3-1.2.9-.2.5-.3 1-.3 1.6.3-.4.7-.6 1.1-.6.3 0 .5.1.7.3v.2c0 .1-.1.1-.3.1-.4 0-.8.4-1.3 1.3.3.8.8 1.5 1.5 2 .6-1.2.9-2.3.9-3.2m15 2.2c0 .1-.1.3-.2.5-.6 1-1.4 1.9-2.2 2.6-1.1.9-2 1.4-3 1.4-1.2 0-1.8-.7-1.8-2.3 0-.3.1-1 .5-2.1-.7 1.2-1.3 1.8-1.5 2.1-.7.9-1.4 1.3-2 1.3-.7 0-1.1-.6-1.1-1.8 0-.7.2-1.6.7-2.6.5-1.2 1.1-1.7 1.6-1.7.3 0 .5.1.5.3 0 0-.3.5-.8 1.5s-.8 1.8-.8 2.2c0 .7.2 1.1.6 1.1.7 0 2-1.6 3.8-4.8.1-.3.4-.7.7-1.3.1-.2.3-.3.5-.3s.4.1.5.3c.1.1.3.3.3.6 0 0-.4.7-1.2 2.2s-1.2 2.6-1.2 3.5c0 .7.3 1.2 1.1 1.2.6 0 1.4-.3 2.1-1.1.5-.5 1.2-1.2 1.8-2 .5-.7.9-1.1.9-1.1.2.1.2.1.2.3m-1-8c-.1 0-.1.1-.1.1-1.5 1.6-3 2.4-4.4 2.2-1.2-.2-1.8-.9-1.9-2 0-.2.1-.4.1-.5.1-.2.1-.3.3-.3.1 0 .2.2.3.5.1.4.3.7.4.9.3.4.7.6 1.3.7 1.2.2 2.3-.3 3.6-1.6.1-.2.3-.3.4-.2v.2m8.9 6.3l-2.1 2.7c-.7.8-1.2 1.5-1.6 1.9-.6.6-1.2.9-1.8 1.2-.5.2-1 .2-1.4 0-.4-.2-.7-.5-.8-1.1-.1-.5-.2-1.2 0-2.1.1-.4.2-.7.3-.9.2-.1.3-.2.5-.2s.4.1.5.2c.1.1.3.3.3.4-.3.9-.5 1.6-.5 2.2 0 .5.1.9.5 1 .3.1.7 0 1.2-.4.5-.3 1.2-1 1.8-2 .1-.2.4-.5.7-1s.9-1.1 1.5-1.8c.2-.3.4-.5.6-.7.2-.2.5-.5.9-1.1.1-.1.3-.2.5-.2.5 0 .7.3.7.7 0 .1-.1.3-.1.4-1.2 2-1.8 3.7-1.8 4.8 0 .8.4 1.3 1.2 1.3.6 0 1.3-.3 2-.9.5-.4 1-1 1.6-1.8.5-.6.7-.9.8-.9s.1.1.1.2-.1.3-.2.5c-1.5 2.5-3.1 3.7-4.7 3.7-1.3 0-1.9-.8-1.9-2.4.3-1.4.5-2.6 1.2-3.7m15 2.1c0 .1 0 .1 0 0-.4.6-.8 1-1.5 1.5-.6.4-1.2.5-1.8.5-.5 0-.9-.1-1.2-.3-1 1.6-2 2.4-3.1 2.4-.7 0-1.2-.5-1.2-1.4 0-1.3.5-2.7 1.6-4.4-.1-.3-.1-.5-.1-.7 0-.8.3-1.6.8-2.3s1.2-1.2 2-1.2c.5 0 .9.3 1.2.9.3.5.3 1 .3 1.6 0 1.2-.5 2.7-1.4 4.5.3.2.7.3 1.2.3.7 0 1.4-.3 2-.9.6-.5.9-.9.9-.9.2.1.3.2.3.4m-5 1.3c-.7-.5-1.3-1-1.6-1.7-.7 1.4-1 2.4-1 3 0 .5.1.7.5.7.3 0 .7-.3 1.2-.8.4-.4.7-.8.9-1.2m1.1-3.9c0-.5-.1-.9-.2-1.5-.2-.7-.5-1.1-.9-1.1-.5 0-.9.3-1.2.9-.2.5-.3 1-.3 1.6.3-.4.7-.6 1.1-.6.3 0 .5.1.7.3v.2c0 .1-.1.1-.3.1-.4 0-.8.4-1.3 1.3.3.8.8 1.5 1.5 2 .6-1.2.9-2.3.9-3.2m7.8-3c-.4.6-.7 1.3-1.2 2.2-.4.9-.7 1.6-.9 2.4.5-1 1.2-2 2-2.8 1.1-1.2 2-1.8 2.8-1.8.7 0 1 .5 1 1.4 0 1.4-.4 2.9-1.3 4.7-.5 1.2-1.4 2.2-2.2 3.1-1.1 1-2.2 1.6-3.4 1.6-.9 0-1.4-.1-1.4-.5 0-.1.1-.2.2-.2s.2.1.5.1c.3.1.5.1.7.1 1 0 2-.5 2.9-1.7.7-.9 1.4-1.8 1.8-3 .4-1 .6-2.1.6-3.3 0-.7-.1-1.1-.5-1.1-.7 0-1.7 1-2.9 3-1.2 1.9-1.7 3.3-1.7 4.2 0 .3.1.4.3.5l.3.3-.1.1c-.8 0-1.2-.6-1.2-1.8 0-.8.2-1.9.6-3.3s1-2.8 1.9-4.6c.7-1.4 1.9-3.5 3.7-6.2 2.7-4.3 4.9-6.4 6.6-6.4 1 0 1.5.5 1.5 1.4 0 1.6-1.4 3.8-4.1 6.6-2 1.9-4.1 3.5-6.5 5m9.8-11c0-.5-.2-.7-.5-.7-.5 0-1.5.5-2.7 1.4-2.2 1.7-4 4.3-5.5 7.8-.3.6-.4 1.1-.5 1.4 1.6-.9 3.4-2.4 5.5-4.5 2.4-2.3 3.7-4.1 3.7-5.4m3.4 16.6c0 .1 0 .1 0 0-.4.6-.8 1-1.5 1.5-.6.4-1.2.5-1.8.5-.5 0-.9-.1-1.2-.3-1 1.6-2 2.4-3.1 2.4-.7 0-1.2-.5-1.2-1.4 0-1.3.5-2.7 1.6-4.4-.1-.3-.1-.5-.1-.7 0-.8.3-1.6.8-2.3s1.2-1.2 2-1.2c.5 0 .9.3 1.2.9.3.5.3 1 .3 1.6 0 1.2-.5 2.7-1.4 4.5.3.2.7.3 1.2.3.7 0 1.4-.3 2-.9.6-.5.9-.9.9-.9.2.1.3.2.3.4m-5 1.3c-.7-.5-1.3-1-1.6-1.7-.7 1.4-1 2.4-1 3 0 .5.1.7.5.7.3 0 .7-.3 1.2-.8.4-.4.6-.8.9-1.2m1-3.9c0-.5-.1-.9-.2-1.5-.2-.7-.5-1.1-.9-1.1-.5 0-.9.3-1.2.9-.2.5-.3 1-.3 1.6.3-.4.7-.6 1.1-.6.3 0 .5.1.7.3v.2c0 .1-.1.1-.3.1-.4 0-.8.4-1.3 1.3.3.8.8 1.5 1.5 2 .7-1.2.9-2.3.9-3.2m15.2 2.2c0 .1-.1.3-.2.5-.6 1-1.4 1.9-2.2 2.6-1.1.9-2 1.4-3 1.4-1.2 0-1.8-.7-1.8-2.3 0-.3.1-1 .5-2.1-.7 1.2-1.3 1.8-1.5 2.1-.7.9-1.4 1.3-2 1.3-.7 0-1.1-.6-1.1-1.8 0-.7.2-1.6.7-2.6.5-1.2 1.1-1.7 1.6-1.7.3 0 .5.1.5.3 0 0-.3.5-.8 1.5s-.8 1.8-.8 2.2c0 .7.2 1.1.6 1.1.7 0 2-1.6 3.8-4.8.1-.3.4-.7.7-1.3.1-.2.3-.3.5-.3s.4.1.5.3c.1.1.3.3.3.6 0 0-.4.7-1.2 2.2s-1.2 2.6-1.2 3.5c0 .7.3 1.2 1.1 1.2.6 0 1.4-.3 2.1-1.1.5-.5 1.2-1.2 1.8-2 .5-.7.9-1.1.9-1.1.1.1.2.1.2.3m-1.1-8c-.1 0-.1.1-.1.1-1.5 1.6-3 2.4-4.4 2.2-1.2-.2-1.8-.9-1.9-2 0-.2.1-.4.1-.5.1-.2.1-.3.3-.3.1 0 .2.2.3.5.1.4.3.7.4.9.3.4.7.6 1.3.7 1.2.2 2.3-.3 3.6-1.6.1-.2.3-.3.4-.2v.2m-206.9-12.2l.1-2.6h-8.7v-10.3h.8v9.4h6.5v-9.4h.9v9.4h1.3v3.5h-.9zm5.6-9.8c2.7 0 3.6 2.2 3.3 4.1h-5.9c.1 1.8 1.6 2.5 3.2 2.5.9 0 1.7-.2 2.4-.6v.8c-.7.3-1.5.5-2.4.5-2 0-3.9-1.1-3.9-3.7-.2-2.4 1.6-3.6 3.3-3.6m.1.7c-1.4 0-2.7.9-2.7 2.6h5.1c.2-1-.4-2.6-2.4-2.6m5.4 6.5V409h.8v3.1h4.6V409h.9v7.1h-.9V413h-4.6v3.1h-.8zm10.8 0v-6.3h-2.8v-.8h6.4v.8h-2.8v6.3h-.8zm9.1-7.2c2 0 3.5 1.5 3.5 3.7s-1.5 3.7-3.5 3.7c-1.4 0-2.4-.7-2.9-1.5v4.6h-.8V409h.7v1.5c.6-.9 1.6-1.6 3-1.6m-.1.7c-1.4 0-2.4.9-2.8 2v2c.4 1.1 1.5 2 2.8 2 1.5 0 2.8-1.1 2.8-2.9 0-1.9-1.2-3.1-2.8-3.1m10 6.5V409H8v3.1h4.5V409h.8v7.1h-.8V413H8v3.1h-.9zm15.1-.6c.2 0 .4-.1.6-.1v.7c-.2.1-.5.2-.7.2-.6 0-1.1-.3-1.2-1.1-.7.7-1.7 1.2-2.9 1.2s-2.4-.7-2.4-2.1c0-1.8 1.6-2.4 3.1-2.4.7 0 1.5.1 2.2.3v-.5c0-1.2-.8-2-2.3-2-1.1 0-2 .2-2.5.5v-.8c.6-.2 1.5-.4 2.6-.4 1.9 0 3 1.1 3 2.9v3c-.1.4.2.6.5.6m-4.1.1c1.1 0 2.1-.5 2.8-1.4v-1.3c-.7-.2-1.4-.3-2.1-.3-1.1 0-2.4.4-2.4 1.5-.1 1 .8 1.5 1.7 1.5m11.4-6.6h.9l-3.6 8.2c-.7 1.6-1.5 2.3-2.5 2.3-.2 0-.5 0-.7-.1v-.7c.2.1.4.1.7.1.8 0 1.5-.6 2-1.8l.3-.8-3.5-7.2h.9l3 6.2 2.5-6.2zm7.5 7.1v-2.6c-.7.3-1.4.4-2.3.4-1.7 0-2.8-.8-2.8-2.5V409h.8v2.4c0 1.4.8 1.8 2.2 1.8.8 0 1.4-.1 2-.4v-3.7h.8v7.1c.2-.1-.7-.1-.7-.1zm3.5 0V409h.9v3.1h4.5V409h.9v7.1h-.9V413h-4.5v3.1h-.9zm12.2-7.2c2 0 3.7 1.3 3.7 3.7s-1.8 3.7-3.7 3.7-3.7-1.3-3.7-3.7 1.8-3.7 3.7-3.7m0 .7c-1.5 0-2.9 1.1-2.9 2.9 0 1.9 1.3 2.9 2.9 2.9 1.5 0 2.8-1.1 2.8-2.9.1-1.8-1.3-2.9-2.8-2.9m5.8 6.5V409h.8v5.8l4.8-5.8h.7v7.1H64v-5.8l-4.8 5.8h-.7zm3.2-8.3c-.7 0-1.4-.2-2-.6v-.8c.7.5 1.3.7 2 .7s1.3-.2 2-.7v.9c-.6.4-1.3.5-2 .5m10.1 8.3V409h.8v3.1h1.6l2.6-3.1h.9l-2.8 3.5 3.2 3.6h-1l-2.9-3.2h-1.6v3.2h-.8zm11.7-7.2c2 0 3.5 1.5 3.5 3.7s-1.5 3.7-3.5 3.7c-1.4 0-2.4-.7-2.9-1.5v4.6h-.8V409h.7v1.5c.7-.9 1.6-1.6 3-1.6m-.1.7c-1.4 0-2.4.9-2.8 2v2c.4 1.1 1.5 2 2.8 2 1.5 0 2.8-1.1 2.8-2.9 0-1.9-1.2-3.1-2.8-3.1m12.1 5.9c.2 0 .4-.1.6-.1v.7c-.2.1-.5.2-.7.2-.6 0-1.1-.3-1.2-1.1-.7.7-1.7 1.2-2.9 1.2s-2.4-.7-2.4-2.1c0-1.8 1.6-2.4 3.1-2.4.7 0 1.5.1 2.2.3v-.5c0-1.2-.8-2-2.3-2-1.1 0-2 .2-2.5.5v-.8c.6-.2 1.5-.4 2.6-.4 1.9 0 3 1.1 3 2.9v3c-.2.4.2.6.5.6m-4.2.1c1.1 0 2.1-.5 2.8-1.4v-1.3c-.7-.2-1.4-.3-2.1-.3-1.1 0-2.4.4-2.4 1.5-.1 1 .8 1.5 1.7 1.5m9.6-6.7c.7 0 1.5.2 2.1.6v.8c-.6-.4-1.3-.7-2-.7-1.5 0-3.1.9-3.1 3 0 2 1.5 2.9 3 2.9.8 0 1.5-.2 2.2-.6v.8c-.7.3-1.5.5-2.4.5-1.9 0-3.7-1.1-3.7-3.7.1-2.5 2.1-3.6 3.9-3.6m7.4 0c2 0 3.7 1.3 3.7 3.7s-1.8 3.7-3.7 3.7-3.7-1.3-3.7-3.7 1.8-3.7 3.7-3.7m0 .7c-1.5 0-2.9 1.1-2.9 2.9 0 1.9 1.3 2.9 2.9 2.9 1.5 0 2.8-1.1 2.8-2.9.1-1.8-1.2-2.9-2.8-2.9m7.5 6.5v-6.3h-2.7v-.8h6.2v.8h-2.6v6.3h-.9zm5.3 0V409h.8v2.6h2.4c1.7 0 2.7 1 2.7 2.3 0 1.3-1.1 2.3-2.7 2.3l-3.2-.1zm.8-.8h2.3c1.2 0 2-.6 2-1.5s-.7-1.5-2-1.5h-2.3v3zm6.6-6.3h.8v7.1h-.8V409z"/></symbol><symbol viewBox="0 0 41.756 41.756" id="modal-close"><path d="M27.948 20.878L40.291 8.536a5 5 0 1 0-7.07-7.071L20.878 13.809 8.535 1.465a5 5 0 0 0-7.07 7.071l12.342 12.342L1.465 33.22a5 5 0 1 0 7.07 7.071l12.343-12.342 12.343 12.343c.976.977 2.256 1.464 3.535 1.464s2.56-.487 3.535-1.464a5 5 0 0 0 0-7.071L27.948 20.878z"/></symbol><symbol viewBox="0 0 68.1 68.1" id="mouse"><path d="M34.5 67.9h-1c-10.1 0-18.3-8.2-18.3-18.3v-31C15.2 8.5 23.4.3 33.5.3h1c10.1 0 18.3 8.2 18.3 18.3v31c.1 10.1-8.2 18.3-18.3 18.3zm-.9-65.6c-9 0-16.3 7.3-16.3 16.3v31c0 9 7.3 16.3 16.3 16.3h1c9 0 16.3-7.3 16.3-16.3v-31c0-9-7.3-16.3-16.3-16.3h-1z"/><path d="M34.1 25.4c-1.2 0-2.3-1-2.3-2.2v-6.5c0-1.2 1-2.2 2.2-2.2 1.2 0 2.2 1 2.2 2.2v6.5c.1 1.2-.9 2.2-2.1 2.2z"/></symbol><symbol viewBox="0 0 95.481 95.481" id="ok"><path d="M43.041 67.254c-7.402-.772-14.076-2.595-19.79-7.064-.709-.556-1.441-1.092-2.088-1.713-2.501-2.402-2.753-5.153-.774-7.988 1.693-2.426 4.535-3.075 7.489-1.682.572.27 1.117.607 1.639.969 10.649 7.317 25.278 7.519 35.967.329 1.059-.812 2.191-1.474 3.503-1.812 2.551-.655 4.93.282 6.299 2.514 1.564 2.549 1.544 5.037-.383 7.016-2.956 3.034-6.511 5.229-10.461 6.761-3.735 1.448-7.826 2.177-11.875 2.661.611.665.899.992 1.281 1.376 5.498 5.524 11.02 11.025 16.5 16.566 1.867 1.888 2.257 4.229 1.229 6.425-1.124 2.4-3.64 3.979-6.107 3.81-1.563-.108-2.782-.886-3.865-1.977-4.149-4.175-8.376-8.273-12.441-12.527-1.183-1.237-1.752-1.003-2.796.071-4.174 4.297-8.416 8.528-12.683 12.735-1.916 1.889-4.196 2.229-6.418 1.15-2.362-1.145-3.865-3.556-3.749-5.979.08-1.639.886-2.891 2.011-4.014 5.441-5.433 10.867-10.88 16.295-16.322.359-.362.694-.746 1.217-1.305z"/><path d="M47.55 48.329c-13.205-.045-24.033-10.992-23.956-24.218C23.67 10.739 34.505-.037 47.84 0c13.362.036 24.087 10.967 24.02 24.478-.068 13.199-10.971 23.897-24.31 23.851zm12.001-24.186c-.023-6.567-5.253-11.795-11.807-11.801-6.609-.007-11.886 5.316-11.835 11.943.049 6.542 5.324 11.733 11.896 11.709 6.552-.023 11.768-5.285 11.746-11.851z"/></symbol><symbol viewBox="0 0 500 349.3" id="owl-next"><path d="M311 0h189v349.3H311z"/><path fill="#F0857B" d="M0 170.7h374.7V133l72.3 41.7-72.3 41.7v-37.7H0z"/></symbol><symbol viewBox="0 0 500 349.3" id="owl-prev"><path d="M0 0h189v349.3H0z"/><path fill="#F0857B" d="M500 170.7H125.3V133L53 174.7l72.3 41.7v-37.7H500z"/></symbol><symbol viewBox="0 0 459.325 459.325" id="plus"><path d="M459.319 229.668c0 22.201-17.992 40.193-40.205 40.193H269.85v149.271c0 22.207-17.998 40.199-40.196 40.193-11.101 0-21.149-4.492-28.416-11.763-7.276-7.281-11.774-17.324-11.769-28.419l-.006-149.288H40.181c-11.094 0-21.134-4.492-28.416-11.774C4.501 250.817.006 240.769.006 229.668 0 207.471 17.992 189.475 40.202 189.475h149.267V40.202C189.469 17.998 207.471 0 229.671 0c22.192.006 40.178 17.986 40.19 40.187v149.288h149.282c22.196.012 40.165 17.996 40.176 40.193z"/></symbol><symbol viewBox="0 0 56.966 56.966" id="search"><path d="M55.146 51.887L41.588 37.786A22.926 22.926 0 0 0 46.984 23c0-12.682-10.318-23-23-23s-23 10.318-23 23 10.318 23 23 23c4.761 0 9.298-1.436 13.177-4.162l13.661 14.208c.571.593 1.339.92 2.162.92.779 0 1.518-.297 2.079-.837a3.004 3.004 0 0 0 .083-4.242zM23.984 6c9.374 0 17 7.626 17 17s-7.626 17-17 17-17-7.626-17-17 7.626-17 17-17z"/></symbol><symbol viewBox="0 0 480.56 480.56" id="tel"><path d="M365.354 317.9c-15.7-15.5-35.3-15.5-50.9 0-11.9 11.8-23.8 23.6-35.5 35.6-3.2 3.3-5.9 4-9.8 1.8-7.7-4.2-15.9-7.6-23.3-12.2-34.5-21.7-63.4-49.6-89-81-12.7-15.6-24-32.3-31.9-51.1-1.6-3.8-1.3-6.3 1.8-9.4 11.9-11.5 23.5-23.3 35.2-35.1 16.3-16.4 16.3-35.6-.1-52.1-9.3-9.4-18.6-18.6-27.9-28-9.6-9.6-19.1-19.3-28.8-28.8-15.7-15.3-35.3-15.3-50.9.1-12 11.8-23.5 23.9-35.7 35.5-11.3 10.7-17 23.8-18.2 39.1-1.9 24.9 4.2 48.4 12.8 71.3 17.6 47.4 44.4 89.5 76.9 128.1 43.9 52.2 96.3 93.5 157.6 123.3 27.6 13.4 56.2 23.7 87.3 25.4 21.4 1.2 40-4.2 54.9-20.9 10.2-11.4 21.7-21.8 32.5-32.7 16-16.2 16.1-35.8.2-51.8-19-19.1-38.1-38.1-57.2-57.1zm-19.1-79.7l36.9-6.3c-5.8-33.9-21.8-64.6-46.1-89-25.7-25.7-58.2-41.9-94-46.9l-5.2 37.1c27.7 3.9 52.9 16.4 72.8 36.3 18.8 18.8 31.1 42.6 35.6 68.8zm57.7-160.4c-42.6-42.6-96.5-69.5-156-77.8l-5.2 37.1c51.4 7.2 98 30.5 134.8 67.2 34.9 34.9 57.8 79 66.1 127.5l36.9-6.3c-9.7-56.2-36.2-107.2-76.6-147.7z"/></symbol><symbol viewBox="0 0 304.36 304.36" id="vk"><path d="M261.945 175.576c10.096 9.857 20.752 19.131 29.807 29.982 4 4.822 7.787 9.798 10.684 15.394 4.105 7.955.387 16.709-6.746 17.184l-44.34-.02c-11.436.949-20.559-3.655-28.23-11.474-6.139-6.253-11.824-12.908-17.727-19.372-2.42-2.642-4.953-5.128-7.979-7.093-6.053-3.929-11.307-2.726-14.766 3.587-3.523 6.421-4.322 13.531-4.668 20.687-.475 10.441-3.631 13.186-14.119 13.664-22.414 1.057-43.686-2.334-63.447-13.641-17.422-9.968-30.932-24.04-42.691-39.971-22.895-31.021-40.428-65.108-56.186-100.15C-2.01 76.458.584 72.22 9.295 72.07c14.465-.281 28.928-.261 43.41-.02 5.879.086 9.771 3.458 12.041 9.012 7.826 19.243 17.402 37.551 29.422 54.521 3.201 4.518 6.465 9.036 11.113 12.216 5.142 3.521 9.057 2.354 11.476-3.374 1.535-3.632 2.207-7.544 2.553-11.434 1.146-13.383 1.297-26.743-.713-40.079-1.234-8.323-5.922-13.711-14.227-15.286-4.238-.803-3.607-2.38-1.555-4.799 3.564-4.172 6.916-6.769 13.598-6.769h50.111c7.889 1.557 9.641 5.101 10.721 13.039l.043 55.663c-.086 3.073 1.535 12.192 7.07 14.226 4.43 1.448 7.35-2.096 10.008-4.905 11.998-12.734 20.561-27.783 28.211-43.366 3.395-6.852 6.314-13.968 9.143-21.078 2.096-5.276 5.385-7.872 11.328-7.757l48.229.043c1.43 0 2.877.021 4.262.258 8.127 1.385 10.354 4.881 7.844 12.817-3.955 12.451-11.65 22.827-19.174 33.251-8.043 11.129-16.645 21.877-24.621 33.072-7.328 10.223-6.746 15.376 2.357 24.255zm0 0" fill-rule="evenodd" clip-rule="evenodd"/></symbol></svg>