<svg version="1" xmlns="http://www.w3.org/2000/svg" width="348" height="348" viewBox="0 0 261.000000 261.000000"><path d="M77.8 24.1c-1.4.9.2 1.8 4.8 2.5 9.2 1.3 13.4 2.3 16.5 3.9 6.1 3.2 7.3 9.2 4.3 21.4-1.6 6.3-18.7 52.8-36.4 99.1-4.6 11.8-10.2 26.5-12.6 32.7-9.7 25.5-20.8 39.8-35.9 46-4.7 2-7.2 2.7-13.9 3.9-3.5.6-4.8 1.3-4.2 2.3.3.4 12.8.6 27.8.6 26.2-.2 27.5-.3 32.1-2.4 8.5-4.1 13.8-13.7 14.1-25.5.1-7 .7-7.3 2.6-1.1 2.3 7.5 8.1 18.2 11.9 22.2 6 6.2 9.2 6.8 41.6 6.7 23.6 0 28.9-.3 34-1.8 11.3-3.3 18.8-10.2 20.1-18.6.4-2.2 1-4 1.4-4 .5 0 3.8 3.6 7.4 8 12.5 15 16.9 16.7 45.7 16.9 12.8.1 20.9-.2 20.9-.8 0-1.5-1.2-1.9-6.6-2.6-13.3-1.7-23-7.9-28.2-18.1-1.1-2.2-5-12.5-8.7-22.9-7-20-20.3-57.4-43-121.5-7.7-21.6-14.7-39.9-16.1-41.7-4-5.2-6.4-5.5-44.1-5.7-19 0-34.9.2-35.5.5zm78.8 65.5c3.2 1.5 6.2 3.9 7.8 6.2 3.2 4.6 3.2 5.2.4 4.6-1.3-.2-5-.9-8.3-1.5-26.3-4.8-51.1 16.4-59.9 51.2-5.6 22.2-3.3 41.2 6.4 52.3 10.9 12.4 34.2 14 49.7 3.4 10.5-7.1 18.3-22.4 17.7-34.8-.3-7.1-.4-8-1.1-8-.5 0-.8 4.2-.8 9.3-.1 8.1-.4 10-3.1 15.7-8.2 17.6-28.3 27.7-43.8 21.9-6.4-2.4-8-4-11.9-11.8-3.1-6.3-3.2-7-3.4-20.1-.3-17 1.6-28 7.8-44.5 1.2-3.3 3-7.2 4-8.7 1.1-1.4 1.9-2.9 1.9-3.4 0-1.1 7.6-10.9 11.2-14.4 7.2-7 17.7-9.4 25.3-5.9 8.6 4.1 17.6 17.5 19.3 28.9.7 4.6.4 6.6-1.5 12.2-3.1 9-3 9.8 1 9.9 3 .2 3 .2.5.6-1.6.2-2.8.6-2.8.9 0 1.4 5.8 11.5 9.1 16.1 2.2 2.9 3.9 5.5 3.9 5.7 0 .3-1.8 1.8-4 3.2-5 3.4-5.8 5.8-3.1 9.5l2.2 2.9-2.7 2.5c-1.5 1.4-3.4 2.5-4.3 2.5-1 .1-.6.6 1.2 1.6 3.2 1.8 3.4 4 .6 7-1.7 1.8-2.1 3.7-2.3 8.9-.1 5.8-.5 7-2.6 8.7-2.9 2.4-9.1 2.2-16.9-.4-10.6-3.6-21.1.6-22.7 8.9-.3 1.8-.8 3.3-1.1 3.3-.2 0-3.5-1.2-7.1-2.7-26.2-10.4-39.7-30.5-39.6-58.8.2-33.1 15.4-65.2 37.7-79.2 11.3-7.2 25.1-8.7 35.3-3.7z"/><path d="M147.5 146.4c.6.2 3.2.7 5.8 1.1 5.7.8 10.5 4.6 13.2 10.5 1 2.2 2.2 4 2.7 4s-.3-2.3-1.9-5.1c-3.5-6.6-8.3-9.8-15.4-10.4-3-.3-4.9-.3-4.4-.1zM138.1 151.8c-5.2 5.2-7.2 10.5-6 16.1 2.1 9.8 14.6 10 13.4.1-.6-4.7-3.4-7.1-8.2-7.3-3.2-.2-3.9-.5-3.5-1.9.6-2.6 6.3-8.6 9.7-10.3 2-1 2.4-1.5 1.2-1.5-1 0-3.9 2.1-6.6 4.8z"/></svg>