<?xml version="1.0" encoding="utf-8"?>
<!-- Generator: Adobe Illustrator 19.0.0, SVG Export Plug-In . SVG Version: 6.00 Build 0)  -->
<svg version="1.1" id="Слой_1" xmlns="http://www.w3.org/2000/svg" xmlns:xlink="http://www.w3.org/1999/xlink" x="0px" y="0px"
	 viewBox="-91.5 210.2 410.5 81.8" style="enable-background:new -91.5 210.2 410.5 81.8;" xml:space="preserve">
<path d="M-58.1,256.8c3.7-14.5,12.1-20.3,16.6-21.6c2-0.6,3.9-0.9,5.5-0.9l0,0c3.2,0.1,5.5,1.2,7,2.8c0.1,0.1,0.1,0.1,0.3,0.3h-0.1
	c0.7,0.7,1.2,1.5,1.6,2.4c-1.9,0.1-4.2-0.9-7.2-0.9c-12.1,0-21.2,14.3-21.2,28.7c0,7.9,3.5,14.5,12.5,15.2c0.6,0.1,1.2,0.1,1.9,0.1
	c0.5,0,0.9,0,1.4-0.1l0,0c7.7-0.9,13.7-8,13.7-16c0-5.5-3-9.5-7.6-9.5c-3.9,0-7.2,3.5-7.2,7.1c0,2.4,1.2,4.1,3,4.1
	c1.5,0,2.3-1.3,2.3-2.5c0-1.8-1.2-2.8-2.7-3.2l0,0c-0.1,0-1-0.1-1.1-0.1c-0.3,0-0.7,0.1-1.1,0.1c0.3-1.3,1.2-2.6,2.4-3.7V259
	c1.2-0.9,2.6-1.5,4.1-1.5c5.1,0,7.5,4.3,7.5,9.3c0,8.5-7,15.7-14.9,15.7c-0.3,0-0.5,0-0.7,0c-7.3-0.5-8.9-7-8.9-13.7
	c0-13,6.3-27,14.4-29.3l0,0c0.8-0.2,1.5-0.3,2.3-0.3c6.5,0,11.2,10,10.4,14.3c-0.2,1.2-0.5,1.8-0.5,1.8c-0.1,0.1-1.2,3.4-1.2,4
	c1,0.3,1.8,0.2,2.9,0.1c0.1,0,0.1,0.1,0.1,0.1c-0.7,0.6-1.7,0.7-2.6,0.5c0.7,1.5,2.2,4.5,2.8,5.1c1,1.4,1.2,1.9,2,2.6
	c1,0.9-0.4,1.6-1.1,2c-0.7,0.5-1.3,0.7-1.6,1.2c-0.9,1.6,0.2,2.7,0.8,3c0.6,0.3-0.1,1.3-0.7,1.7c-0.6,0.5-2.2,1.1-2.2,1.1
	s1.6,0.1,2,1.2s-0.2,1.5-0.7,1.8s-1.2,1.1-1,2.6c0.3,1.4,0.4,2.9-1,4.3s-5.1,0.3-7.7-0.6c-2.4-0.8-5.1,0.3-6.4,1.6
	c-1.1,1.1-1.3,2.8-1,3.6C-44.1,290.2-65.4,284.9-58.1,256.8 M-61.8,210.2v0.3c0,0.9,3.2,0.7,6.4,1.6c3.9,1,4.5,3.1,4.3,5.3
	c-0.1,1.6-1.2,6.1-2.2,8.5c-8.1,22.1-15.6,41.4-17.8,47.2c-8,20.8-20.4,16.6-20.4,18.5v0.3h18.4c0,0,12.5,1.2,9.7-16.6
	c0.4,2.2,2,8.9,5.5,13.5c2.3,3.1,7.2,3.1,7.2,3.1h12.4h0.3h4.5c0,0,12.6,0,12.9-9.1c0.1-1.3,2,0.9,3.9,3.5c2.7,3.6,6.7,5.7,11,5.7
	h14v-0.5c0-1.4-10.9,1.3-14.7-10.5l-23.4-66.1c0,0-0.9-2.4-2.3-3.5c-1.5-1.1-4.5-1.1-4.5-1.1L-61.8,210.2L-61.8,210.2L-61.8,210.2z
	 M41.8,249.8c0,0.1-0.1,0.3-0.1,0.4c-2.7,4.5-5,10.1-6.8,16.7c1.4,0.4,2.2,0.9,2.2,1.3c0,0.3-0.1,0.4-0.4,0.4c0,0-0.3-0.1-0.9-0.3
	c-0.6-0.1-0.9-0.3-1-0.4c-0.9,3.7-1.3,6.8-1.3,9.1c0,1,0.1,1.7,0.4,1.7c0.3,0,0.7-0.1,1.2-0.6c0.4-0.4,0.7-0.6,0.9-0.6
	c0.3,0,0.4,0.1,0.4,0.4c0,0.4-0.3,0.7-1,1c-0.6,0.4-1.2,0.6-1.6,0.6c-1.2,0-1.9-1-1.9-3c0-2,0.4-5,1.2-8.9c-1.7-0.1-3.5-0.4-5.6-0.4
	c-1,1.2-2.3,2.6-3.7,4.3c-2.6,2.7-4.5,4.6-5.9,5.6c-2.4,1.7-5,2.6-7.5,2.6c-1.7,0-3.2-0.4-4-1.2c-1.3-0.7-1.9-2-1.9-3.7
	c0-1.9,0.7-3.5,2.3-5c1.3-1.3,3-2.3,5-2.9c3.2-0.9,8.2-1.3,15.3-1.3c2-2.4,4-5,6.2-7.8c0.6-0.7,1.4-2,2.6-3.6
	c0.1-0.1,0.3-0.1,0.4-0.1c0.4,0,0.6,0.1,0.6,0.6c0,0.1,0,0.1-0.1,0.3c-0.1,0.3-1.2,1.6-2.9,3.9c-2,2.7-3.7,5-5,6.6
	c1.6,0.1,3.2,0.3,4.8,0.7c0.9-4,2-7.8,3.5-11.4c0.4-1,1-2.3,2-4.2c0.1-0.1,0.6-0.6,1.3-1c0.7-0.4,1.3-0.7,1.4-0.7
	C41.5,249.4,41.8,249.5,41.8,249.8 M32.4,263.2h-1.9c-7.3,0-12.7,0.6-16.6,1.4c-2,0.7-3.9,1.7-5.5,3.2c-1.9,1.7-2.6,3.5-2.6,5.6
	c0,1.4,0.7,2.4,1.9,3.2c0.9,0.7,2.2,0.9,3.7,0.9c3.3,0,6.3-1,9.5-3.2c2-1.3,4.6-3.6,7.5-6.9C29.7,266.1,31.1,264.8,32.4,263.2
	 M50.6,269c-1,1.3-2,2.6-3,3.9c-1,1.2-1.7,2.2-2.3,2.7c-0.9,0.9-1.7,1.3-2.6,1.7c-0.7,0.3-1.4,0.3-2,0s-1-0.7-1.2-1.6
	c-0.1-0.7-0.3-1.7,0-3c0.1-0.6,0.3-1,0.4-1.3c0.3-0.1,0.4-0.3,0.7-0.3s0.6,0.1,0.7,0.3s0.4,0.4,0.4,0.6c-0.4,1.3-0.7,2.3-0.7,3.2
	c0,0.7,0.1,1.3,0.7,1.4c0.4,0.1,1,0,1.7-0.6c0.7-0.4,1.7-1.4,2.6-2.9c0.1-0.3,0.6-0.7,1-1.4c0.4-0.7,1.3-1.6,2.2-2.6
	c0.3-0.4,0.6-0.7,0.9-1c0.3-0.3,0.7-0.7,1.3-1.6c0.1-0.1,0.4-0.3,0.7-0.3c0.7,0,1,0.4,1,1c0,0.1-0.1,0.4-0.1,0.6
	c-1.7,2.9-2.6,5.3-2.6,6.9c0,1.2,0.6,1.9,1.7,1.9c0.9,0,1.9-0.4,2.9-1.3c0.7-0.6,1.4-1.4,2.3-2.6c0.7-0.9,1-1.3,1.2-1.3
	s0.1,0.1,0.1,0.3c0,0.1-0.1,0.4-0.3,0.7c-2.2,3.6-4.5,5.3-6.8,5.3c-1.9,0-2.7-1.2-2.7-3.5C49.1,272.3,49.7,270.6,50.6,269
	 M63.5,269.3c-0.6,1-1,2.2-1.4,3.3c-0.4,1.2-0.7,2-0.7,2.6c0,1,0.4,1.7,1.6,1.7c0.7,0,1.4-0.3,2.3-0.9c0.9-0.6,1.6-1.2,2.3-2
	c-0.7,0.1-1.6-0.1-2-0.4c-0.6-0.4-0.9-1-0.9-2c-0.1-0.6,0-1,0.3-1.7c0.3-0.4,0.7-1,1-1.3c0.4-0.4,1-0.6,1.6-0.7c0.6-0.1,1-0.1,1.6,0
	c0.4,0.1,0.9,0.4,1,1c0.3,0.4,0.4,1.3,0.3,2.2c0,0.4-0.1,0.9-0.3,1.3c0.7-0.4,1.4-0.7,2-1.3c0.7-0.4,1.3-1,1.7-1.6l0.6,0.1
	c-0.1,0.3-0.4,0.7-0.7,1c-0.3,0.4-0.7,0.7-1.2,1c-0.4,0.4-1,0.7-1.4,1c-0.6,0.3-1,0.6-1.7,0.7c-0.4,0.6-0.9,1-1.3,1.6
	c-0.6,0.4-1.2,0.9-1.7,1.2c-0.6,0.4-1.3,0.7-2,0.9c-0.7,0.1-1.3,0.4-2,0.4c-1.9,0.1-2.7-0.7-2.7-2.7c0-0.9,0.1-1.9,0.4-2.9
	c0.3-1,0.7-2.2,1.2-3.2c0.4-1,1-2,1.6-3c0.6-1,1-1.7,1.7-2.4c0.1-0.1,0.3-0.1,0.4-0.1s0.4,0.1,0.7,0.3c0.1,0.1,0.4,0.3,0.6,0.4
	c0.1,0.1,0.1,0.4,0.1,0.6c0,0.1-0.1,0.4-0.1,0.4c-0.1,0.1-0.3,0.4-0.6,0.9c-0.3,0.4-0.6,0.7-0.9,1.3c-0.3,0.4-0.6,0.9-0.9,1.3
	C63.7,269,63.5,269.3,63.5,269.3 M68.4,272.6c0.4-0.7,0.4-1.3,0.4-1.7s-0.1-0.7-0.4-1c-0.3-0.1-0.7-0.3-1-0.3
	c-0.4,0-0.7,0.1-1.2,0.4c-0.4,0.1-0.6,0.4-0.7,0.9s-0.1,0.7,0,1.3c0.1,0.4,0.4,0.7,1,1c0.4,0.1,1,0.1,1.7-0.1
	c0.1-0.1,0.1-0.1,0.1-0.3C68.4,272.7,68.4,272.6,68.4,272.6 M94.4,256c-0.4,0.6-1.3,1.2-2.3,1.6c-1,0.4-2.9,0.7-5,0.9
	c-1.3,0.1-2.6,0.4-3.7,1.3s-2.3,2.3-3.5,4c-0.6,0.9-1,1.7-1.3,2.3c-0.3,0.6-0.6,1-0.9,1.6c-0.1,0.4-0.4,0.9-0.6,1.3
	c-0.1,0.4-0.3,0.9-0.4,1.4c0.7-1.4,1.7-2.9,2.9-4c1.6-1.7,2.9-2.6,4-2.6c1,0,1.4,0.7,1.4,2c0,2-0.6,4.2-1.9,6.8
	c-0.7,1.7-2,3.2-3.2,4.5c-1.6,1.4-3.2,2.3-4.9,2.3c-1.3,0-2-0.1-2-0.7c0-0.1,0.1-0.3,0.3-0.3s0.3,0.1,0.7,0.1s0.7,0.1,1,0.1
	c1.4,0,2.9-0.7,4.2-2.4c1-1.3,2-2.6,2.6-4.3c0.6-1.4,0.9-3,0.9-4.8c0-1-0.1-1.6-0.7-1.6c-1,0-2.4,1.4-4.2,4.3
	c-1.7,2.7-2.4,4.8-2.4,6.1c0,0.4,0.1,0.6,0.4,0.7c0.1,0.1,0.4,0.4,0.4,0.4c0,0.1-0.1,0.1-0.1,0.1c-1.2,0-1.7-0.9-1.7-2.6
	c0-1.3,0.3-2.7,1-4.5c0.7-1.7,1.4-3.5,2.6-5.3c1-1.7,2.3-3.5,3.7-4.9c1.3-1.4,2.9-2.6,4.3-3.2c0.7-0.3,1.4-0.6,2.2-0.7
	c0.7-0.1,1.3-0.3,1.9-0.4c0.6-0.1,1-0.1,1.4-0.3c0.4-0.1,0.9-0.1,1.2-0.4c0.4-0.1,0.9-0.4,1.2-0.6s0.6-0.3,0.7-0.4
	c0.1,0,0.3,0.1,0.3,0.4C94.7,254.7,94.5,255.3,94.4,256 M102.2,271.4c0,0.1-0.1,0.4-0.3,0.7c-0.9,1.4-2,2.7-3.2,3.7
	c-1.6,1.3-2.9,2-4.3,2c-1.7,0-2.6-1-2.6-3.3c0-0.4,0.1-1.4,0.7-3c-1,1.7-1.9,2.6-2.2,3c-1,1.3-2,1.9-2.9,1.9c-1,0-1.6-0.9-1.6-2.6
	c0-1,0.3-2.3,1-3.7c0.7-1.7,1.6-2.4,2.3-2.4c0.4,0,0.7,0.1,0.7,0.4c0,0-0.4,0.7-1.2,2.2c-0.7,1.3-1.2,2.6-1.2,3.2
	c0,1,0.3,1.6,0.9,1.6c1,0,2.9-2.3,5.5-6.9c0.1-0.4,0.6-1,1-1.9c0.1-0.3,0.4-0.4,0.7-0.4s0.6,0.1,0.7,0.4c0.1,0.1,0.4,0.4,0.4,0.9
	c0,0-0.6,1-1.7,3.2c-1.2,2.2-1.7,3.7-1.7,5c0,1,0.4,1.7,1.6,1.7c0.9,0,2-0.4,3-1.6c0.7-0.7,1.7-1.7,2.6-2.9c0.7-1,1.3-1.6,1.3-1.6
	C102.2,271.2,102.2,271.2,102.2,271.4 M109.8,268.7c0.1-0.1,0.1-0.3,0.3-0.4c0.1-0.1,0.1-0.4,0.3-0.7c0.1-0.3,0.1-0.4,0.3-0.7
	c0.1-0.1,0.1-0.4,0.3-0.4c0.1-0.1,0.4-0.3,0.7-0.3c0.7,0,1,0.4,1,1c0,0.1-0.1,0.4-0.1,0.6c-1.7,2.9-2.6,5.3-2.6,6.9
	c0,1.2,0.6,1.9,1.7,1.9c0.9,0,1.9-0.4,2.9-1.3c0.7-0.6,1.4-1.4,2.3-2.6c0.7-0.9,1-1.3,1.2-1.3c0.1,0,0.1,0.1,0.1,0.3
	c0,0.1-0.1,0.4-0.3,0.7c-2.2,3.6-4.5,5.3-6.8,5.3c-1.9,0-2.7-1.2-2.7-3.5c0-1.3,0.1-2.4,0.6-3.6c-0.7,0.1-1.6,0.4-2.3,0.7
	c-0.7,0.3-1.7,0.6-2.4,0.9c-0.1,0.3-0.1,0.4-0.1,0.7c-0.1,0.1-0.1,0.4-0.1,0.7c-0.3,1.4-0.6,2.6-0.9,3c-0.3,0.6-0.7,0.7-1,0.7
	c-0.3,0-0.4-0.3-0.4-0.9c0-0.1,0-0.3,0.1-0.4c0.4-0.7,0.7-1.7,1-2.9c0.4-1.2,0.7-2.4,1-4c0.1-0.3,0.1-0.6,0.1-1
	c0.1-0.4,0.1-0.7,0.3-1.3c0.1-0.1,0.3-0.4,0.7-0.7c0.4-0.1,0.7-0.3,1-0.3c0.1,0,0.3,0.1,0.3,0.3s-0.1,0.7-0.4,1.4
	c-0.3,0.7-0.6,2-1,3.5c0.4-0.1,1-0.3,1.7-0.6c0.6-0.1,1.3-0.4,2.3-0.7c0.1,0,0.6-0.1,1-0.3C109.4,269.4,109.6,269.1,109.8,268.7
	 M141.1,271.6c0,0.3-0.1,0.4-0.3,0.7c-2.9,3.7-5.3,5.8-7.5,5.8c-1.7,0-2.6-1-2.6-2.9c0-0.7,0.3-2,0.7-3.5c-1,0.7-2.2,1.4-3.5,2
	c-0.4,0.6-0.9,1-1.3,1.6c-0.6,0.4-1.2,0.9-1.7,1.2c-0.6,0.4-1.3,0.7-2,0.9c-0.7,0.1-1.3,0.4-2,0.4c-1.9,0.1-2.7-0.7-2.7-2.7
	c0-0.9,0.1-1.9,0.4-2.9c0.3-1,0.7-2.2,1.2-3.2c0.4-1,1-2,1.6-3c0.6-1,1-1.7,1.7-2.4c0.1-0.1,0.3-0.3,0.4-0.1
	c0.1,0.1,0.4,0.1,0.7,0.3c0.1,0.1,0.4,0.3,0.6,0.4c0.1,0.1,0.1,0.4,0.1,0.6c0,0.1-0.1,0.3-0.1,0.4c-0.1,0.1-0.3,0.4-0.6,0.9
	c-0.3,0.4-0.6,0.7-0.9,1.3c-0.3,0.4-0.6,0.9-0.9,1.3s-0.4,0.7-0.6,0.7c-0.6,1-1,2.2-1.4,3.3c-0.4,1.2-0.7,2-0.7,2.6
	c0,1,0.4,1.7,1.6,1.7c0.7,0,1.4-0.3,2.3-0.9s1.6-1.2,2.3-2c-0.7,0.1-1.6-0.1-2-0.4c-0.6-0.4-0.9-1-0.9-2c-0.1-0.6,0.1-1,0.3-1.7
	c0.3-0.4,0.7-1,1-1.3c0.4-0.4,1-0.6,1.6-0.7c0.6-0.1,1-0.1,1.6,0c0.4,0.1,0.9,0.4,1,1c0.3,0.4,0.4,1.3,0.3,2.2
	c0,0.4-0.1,0.9-0.3,1.3c0.7-0.3,1.3-0.7,1.9-1c0.6-0.4,1.2-0.9,1.6-1.3c0.1-0.4,0.4-0.9,0.7-1.2c0.1-0.4,0.4-0.7,0.7-1
	c0.1-0.3,0.4-0.4,0.7-0.4c0.3,0,0.6,0.1,0.7,0.4c0.1,0.3,0.4,0.4,0.4,0.7c0,0.1-0.1,0.4-0.1,0.4c-1.6,2.6-2.3,4.6-2.3,6.2
	c0,1.2,0.4,1.7,1.3,1.7s2-0.4,3.2-1.6c0.4-0.4,0.7-0.7,1.2-1.2c0.4-0.4,0.9-1,1.3-1.6l1.3-1.6C140.9,271.2,141.1,271.3,141.1,271.6
	 M127.2,272.6c0.4-0.7,0.4-1.3,0.4-1.7s-0.1-0.7-0.4-1c-0.3-0.1-0.7-0.3-1-0.3c-0.4,0-0.7,0.1-1.2,0.4c-0.4,0.1-0.6,0.4-0.7,0.9
	s-0.1,0.7,0,1.3c0.1,0.4,0.4,0.7,1,1c0.4,0.1,1,0.1,1.7-0.1c0.1-0.1,0.1-0.1,0.1-0.3C127.1,272.7,127.1,272.6,127.2,272.6
	 M180.7,255c0,2.2-1.2,4-3.6,5.9c-2.3,1.7-4.5,2.6-6.8,2.6s-3.5-0.9-3.5-2.6c0-1.3,0.3-2,0.9-2c0.1,0,0.3,0.1,0.3,0.4
	c0,0.1,0,0.1,0,0.4c0,0.1,0,0.3,0,0.4c0,1.3,0.7,1.9,2.4,1.9c1.7,0,3.6-0.7,5.8-2.4c2.2-1.7,3.2-3.2,3.2-4.8c0-1.6-1.3-2.3-3.9-2.3
	c-0.6,0-1,0-1.6,0.1c-2.7,0.3-5.9,1.4-9.4,3.5c-3.5,2-6.5,4.5-8.6,7.1c-2.6,3-3.9,5.9-3.9,8.8c0,1.7,0.6,3.2,1.7,4
	c1,0.7,2.4,1.3,4.3,1.3c5.8,0,11.4-2.3,16.9-6.8c0.1-0.1,0.3-0.1,0.4-0.1c0.4,0,0.6,0.1,0.6,0.6c0,0.1-0.1,0.3-0.1,0.4
	c-2.3,2.2-5,3.9-8.2,5.5c-3.5,1.7-6.6,2.4-9.5,2.4c-2.3,0-4.2-0.4-5.6-1.4c-1.7-1-2.6-2.7-2.6-5c0-2.6,1-5.5,3.2-8.5
	c2.6-3.6,5.8-6.6,9.8-9.1c4.3-2.6,8.5-4,12.7-4C179,251.4,180.7,252.6,180.7,255 M191.9,271.7c0,0.1-0.1,0.4-0.3,0.7
	c-1.3,2.3-2.7,3.7-4,4.3c-0.6,0.3-1.2,0.4-1.7,0.4c-2,0-2.9-1.3-2.9-4c0-0.4,0-0.9,0.1-1.4c-2.2,3.7-4,5.6-5.6,5.6
	c-1,0-1.4-0.6-1.4-1.7c0-1.7,0.7-3.6,2.3-5.9c1.6-2.3,3.2-3.7,4.6-4.3c0.6-0.1,1-0.3,1.6-0.3c1.2,0,2,0.4,2.4,1.2
	c0.1,0.1,0.1,0.3,0.1,0.3s-0.1,0.1-0.3,0.1c-0.1,0.1-0.4,0.1-0.4,0.3c-0.7,1.3-1.2,3.2-1.2,5.6c0,2.3,0.4,3.5,1.4,3.5
	c0.7,0,1.7-0.7,2.9-2.3c1.3-1.6,2-2.3,2-2.3C191.9,271.4,191.9,271.6,191.9,271.7 M184.9,266.7c-0.1,0-0.3,0-0.4,0
	c-1.3,0-2.6,0.7-4,2.4c-2,2.3-2.9,4.3-2.9,5.8c0,0.7,0.1,1,0.7,1c0.7,0,1.6-0.7,2.7-2.2C182.6,271.7,183.9,269.4,184.9,266.7
	 M202.1,268.7c-0.7,1.3-1.3,2.6-2,4c-0.7,1.3-1.3,2.3-2,2.9c-0.9,0.9-1.7,1.3-2.6,1.7c-0.7,0.3-1.4,0.3-2,0c-0.6-0.3-1-0.7-1.2-1.6
	c-0.1-0.7-0.3-1.7,0-3c0.1-0.6,0.3-1,0.4-1.3c0.3-0.1,0.4-0.3,0.7-0.3c0.3,0,0.6,0.1,0.7,0.3c0.1,0.1,0.4,0.4,0.4,0.6
	c-0.4,1.3-0.7,2.3-0.7,3.2c0,0.7,0.1,1.3,0.7,1.4c0.4,0.1,1,0,1.7-0.6c0.7-0.4,1.7-1.4,2.6-2.9c0.4-0.4,0.7-1.2,1.2-2s1-2,1.3-3.7
	c1.2-0.6,2-0.9,2.6-0.9c0.4,0,0.7,0.1,0.9,0.6c0,0.4-0.1,1-0.4,1.7c-0.3,0.7-0.6,1.3-1,2.2c-0.4,0.9-0.7,1.4-1,2.2
	c-0.3,0.7-0.4,1.3-0.4,1.7c0.1-0.1,0.3-0.4,0.4-0.7c0.3-0.3,0.6-0.7,1-1.2s0.7-1,1.3-1.4c0.4-0.6,1-1,1.4-1.7
	c0.6-0.7,1.7-1.9,2.9-3.2c0.1-0.1,0.3-0.1,0.4-0.3c0.1-0.1,0.3-0.1,0.4-0.1c0.7,0,1,0.4,1,1c0,0.1-0.1,0.4-0.1,0.6
	c-1.7,2.9-2.6,5.3-2.6,6.9c0,1.2,0.6,1.9,1.7,1.9c0.9,0,1.9-0.4,2.9-1.3c0.7-0.6,1.4-1.4,2.3-2.6c0.7-0.9,1-1.3,1.2-1.3
	s0.1,0.1,0.1,0.3c0,0.1-0.1,0.4-0.3,0.7c-2.2,3.6-4.5,5.3-6.8,5.3c-1.9,0-2.7-1.2-2.7-3.5c0-1,0.1-2,0.3-2.9c0.1-0.9,0.4-1.7,1-2.4
	c-0.7,0.6-1.2,1.2-1.7,1.9c-0.4,0.6-1,1.3-1.7,2.2c-0.3,0.4-0.6,0.7-0.9,1.2s-0.6,0.7-0.9,1c-0.3,0.3-0.6,0.6-0.9,0.7
	c-0.3,0.1-0.6,0.1-0.9,0c-0.4-0.1-0.4-0.7-0.3-1.4c0.1-0.7,0.4-1.4,0.7-2.3c0.3-0.7,0.6-1.6,0.9-2.3c0.3-0.7,0.4-1,0.3-1.2
	C202.4,268.7,202.3,268.7,202.1,268.7C202.1,268.4,202.1,268.6,202.1,268.7 M229.2,272C229.2,272.2,229.2,272.2,229.2,272
	c-0.6,0.9-1.2,1.4-2.2,2.2c-0.9,0.6-1.7,0.7-2.6,0.7c-0.7,0-1.3-0.1-1.7-0.4c-1.4,2.3-2.9,3.5-4.5,3.5c-1,0-1.7-0.7-1.7-2
	c0-1.9,0.7-3.9,2.3-6.3c-0.1-0.4-0.1-0.7-0.1-1c0-1.2,0.4-2.3,1.2-3.3s1.7-1.7,2.9-1.7c0.7,0,1.3,0.4,1.7,1.3
	c0.4,0.7,0.4,1.4,0.4,2.3c0,1.7-0.7,3.9-2,6.5c0.4,0.3,1,0.4,1.7,0.4c1,0,2-0.4,2.9-1.3c0.9-0.7,1.3-1.3,1.3-1.3
	C229.2,271.6,229.2,271.7,229.2,272 M222,273.9c-1-0.7-1.9-1.4-2.3-2.4c-1,2-1.4,3.5-1.4,4.3c0,0.7,0.1,1,0.7,1s1-0.4,1.7-1.2
	C221.3,275,221.7,274.5,222,273.9 M223.6,268.3c0-0.7-0.1-1.3-0.3-2.2c-0.3-1-0.7-1.6-1.3-1.6c-0.7,0-1.3,0.4-1.7,1.3
	c-0.3,0.7-0.4,1.4-0.4,2.3c0.4-0.6,1-0.9,1.6-0.9c0.4,0,0.7,0.1,1,0.4v0.1c0,0.1,0,0.1,0,0.1c0,0.1-0.1,0.1-0.4,0.1
	c-0.6,0-1.2,0.6-1.9,1.9c0.4,1.2,1.2,2.2,2.2,2.9C223.2,271.2,223.6,269.6,223.6,268.3 M245.2,271.4c0,0.1-0.1,0.4-0.3,0.7
	c-0.9,1.4-2,2.7-3.2,3.7c-1.6,1.3-2.9,2-4.3,2c-1.7,0-2.6-1-2.6-3.3c0-0.4,0.1-1.4,0.7-3c-1,1.7-1.9,2.6-2.2,3c-1,1.3-2,1.9-2.9,1.9
	c-1,0-1.6-0.9-1.6-2.6c0-1,0.3-2.3,1-3.7c0.7-1.7,1.6-2.4,2.3-2.4c0.4,0,0.7,0.1,0.7,0.4c0,0-0.4,0.7-1.2,2.2
	c-0.7,1.4-1.2,2.6-1.2,3.2c0,1,0.3,1.6,0.9,1.6c1,0,2.9-2.3,5.5-6.9c0.1-0.4,0.6-1,1-1.9c0.1-0.3,0.4-0.4,0.7-0.4s0.6,0.1,0.7,0.4
	c0.1,0.1,0.4,0.4,0.4,0.9c0,0-0.6,1-1.7,3.2c-1.2,2.2-1.7,3.7-1.7,5c0,1,0.4,1.7,1.6,1.7c0.9,0,2-0.4,3-1.6c0.7-0.7,1.7-1.7,2.6-2.9
	c0.7-1,1.3-1.6,1.3-1.6C245.2,271.2,245.2,271.2,245.2,271.4 M243.8,259.9c-0.1,0-0.1,0.1-0.1,0.1c-2.2,2.3-4.3,3.5-6.3,3.2
	c-1.7-0.3-2.6-1.3-2.7-2.9c0-0.3,0.1-0.6,0.1-0.7c0.1-0.3,0.1-0.4,0.4-0.4c0.1,0,0.3,0.3,0.4,0.7c0.1,0.6,0.4,1,0.6,1.3
	c0.4,0.6,1,0.9,1.9,1c1.7,0.3,3.3-0.4,5.2-2.3c0.1-0.3,0.4-0.4,0.6-0.3C243.8,259.8,243.8,259.9,243.8,259.9 M256.6,269
	c-1,1.3-2,2.6-3,3.9c-1,1.2-1.7,2.2-2.3,2.7c-0.9,0.9-1.7,1.3-2.6,1.7c-0.7,0.3-1.4,0.3-2,0s-1-0.7-1.2-1.6c-0.1-0.7-0.3-1.7,0-3
	c0.1-0.6,0.3-1,0.4-1.3c0.3-0.1,0.4-0.3,0.7-0.3s0.6,0.1,0.7,0.3c0.1,0.1,0.4,0.4,0.4,0.6c-0.4,1.3-0.7,2.3-0.7,3.2
	c0,0.7,0.1,1.3,0.7,1.4c0.4,0.1,1,0,1.7-0.6c0.7-0.4,1.7-1.4,2.6-2.9c0.1-0.3,0.6-0.7,1-1.4c0.4-0.7,1.3-1.6,2.2-2.6
	c0.3-0.4,0.6-0.7,0.9-1c0.3-0.3,0.7-0.7,1.3-1.6c0.1-0.1,0.4-0.3,0.7-0.3c0.7,0,1,0.4,1,1c0,0.1-0.1,0.4-0.1,0.6
	c-1.7,2.9-2.6,5.3-2.6,6.9c0,1.2,0.6,1.9,1.7,1.9c0.9,0,1.9-0.4,2.9-1.3c0.7-0.6,1.4-1.4,2.3-2.6c0.7-0.9,1-1.3,1.2-1.3
	c0.1,0,0.1,0.1,0.1,0.3c0,0.1-0.1,0.4-0.3,0.7c-2.2,3.6-4.5,5.3-6.8,5.3c-1.9,0-2.7-1.2-2.7-3.5C255.3,272.3,255.6,270.6,256.6,269
	 M278.2,272C278.2,272.2,278.2,272.2,278.2,272c-0.6,0.9-1.2,1.4-2.2,2.2c-0.9,0.6-1.7,0.7-2.6,0.7c-0.7,0-1.3-0.1-1.7-0.4
	c-1.4,2.3-2.9,3.5-4.5,3.5c-1,0-1.7-0.7-1.7-2c0-1.9,0.7-3.9,2.3-6.3c-0.1-0.4-0.1-0.7-0.1-1c0-1.2,0.4-2.3,1.2-3.3
	c0.7-1,1.7-1.7,2.9-1.7c0.7,0,1.3,0.4,1.7,1.3c0.4,0.7,0.4,1.4,0.4,2.3c0,1.7-0.7,3.9-2,6.5c0.4,0.3,1,0.4,1.7,0.4
	c1,0,2-0.4,2.9-1.3c0.9-0.7,1.3-1.3,1.3-1.3C278.1,271.6,278.2,271.7,278.2,272 M271,273.9c-1-0.7-1.9-1.4-2.3-2.4
	c-1,2-1.4,3.5-1.4,4.3c0,0.7,0.1,1,0.7,1c0.4,0,1-0.4,1.7-1.2C270.3,275,270.7,274.5,271,273.9 M272.6,268.3c0-0.7-0.1-1.3-0.3-2.2
	c-0.3-1-0.7-1.6-1.3-1.6c-0.7,0-1.3,0.4-1.7,1.3c-0.3,0.7-0.4,1.4-0.4,2.3c0.4-0.6,1-0.9,1.6-0.9c0.4,0,0.7,0.1,1,0.4v0.1
	c0,0.1,0,0.1,0,0.1c0,0.1-0.1,0.1-0.4,0.1c-0.6,0-1.2,0.6-1.9,1.9c0.4,1.2,1.2,2.2,2.2,2.9C272.2,271.2,272.6,269.6,272.6,268.3
	 M283.8,264c-0.6,0.9-1,1.9-1.7,3.2c-0.6,1.3-1,2.3-1.3,3.5c0.7-1.4,1.7-2.9,2.9-4c1.6-1.7,2.9-2.6,4-2.6c1,0,1.4,0.7,1.4,2
	c0,2-0.6,4.2-1.9,6.8c-0.7,1.7-2,3.2-3.2,4.5c-1.6,1.4-3.2,2.3-4.9,2.3c-1.3,0-2-0.1-2-0.7c0-0.1,0.1-0.3,0.3-0.3
	c0.1,0,0.3,0.1,0.7,0.1c0.4,0.1,0.7,0.1,1,0.1c1.4,0,2.9-0.7,4.2-2.4c1-1.3,2-2.6,2.6-4.3c0.6-1.4,0.9-3,0.9-4.8
	c0-1-0.1-1.6-0.7-1.6c-1,0-2.4,1.4-4.2,4.3c-1.7,2.7-2.4,4.8-2.4,6.1c0,0.4,0.1,0.6,0.4,0.7c0.1,0.1,0.4,0.4,0.4,0.4l-0.1,0.1
	c-1.2,0-1.7-0.9-1.7-2.6c0-1.2,0.3-2.7,0.9-4.8c0.6-2,1.4-4,2.7-6.6c1-2,2.7-5,5.3-8.9c3.9-6.2,7.1-9.2,9.5-9.2c1.4,0,2.2,0.7,2.2,2
	c0,2.3-2,5.5-5.9,9.5C290.3,259.5,287.3,261.8,283.8,264 M298,248.1c0-0.7-0.3-1-0.7-1c-0.7,0-2.2,0.7-3.9,2
	c-3.2,2.4-5.8,6.2-7.9,11.2c-0.4,0.9-0.6,1.6-0.7,2c2.3-1.3,4.9-3.5,7.9-6.5C296.1,252.6,298,250,298,248.1 M302.9,272
	C302.9,272.2,302.9,272.2,302.9,272c-0.6,0.9-1.2,1.4-2.2,2.2c-0.9,0.6-1.7,0.7-2.6,0.7c-0.7,0-1.3-0.1-1.7-0.4
	c-1.4,2.3-2.9,3.5-4.5,3.5c-1,0-1.7-0.7-1.7-2c0-1.9,0.7-3.9,2.3-6.3c-0.1-0.4-0.1-0.7-0.1-1c0-1.2,0.4-2.3,1.2-3.3s1.7-1.7,2.9-1.7
	c0.7,0,1.3,0.4,1.7,1.3c0.4,0.7,0.4,1.4,0.4,2.3c0,1.7-0.7,3.9-2,6.5c0.4,0.3,1,0.4,1.7,0.4c1,0,2-0.4,2.9-1.3
	c0.9-0.7,1.3-1.3,1.3-1.3C302.7,271.6,302.9,271.7,302.9,272 M295.7,273.9c-1-0.7-1.9-1.4-2.3-2.4c-1,2-1.4,3.5-1.4,4.3
	c0,0.7,0.1,1,0.7,1c0.4,0,1-0.4,1.7-1.2C294.9,275,295.2,274.5,295.7,273.9 M297.1,268.3c0-0.7-0.1-1.3-0.3-2.2
	c-0.3-1-0.7-1.6-1.3-1.6c-0.7,0-1.3,0.4-1.7,1.3c-0.3,0.7-0.4,1.4-0.4,2.3c0.4-0.6,1-0.9,1.6-0.9c0.4,0,0.7,0.1,1,0.4v0.1
	c0,0.1,0,0.1,0,0.1c0,0.1-0.1,0.1-0.4,0.1c-0.6,0-1.2,0.6-1.9,1.9c0.4,1.2,1.2,2.2,2.2,2.9C296.8,271.2,297.1,269.6,297.1,268.3
	 M319,271.4c0,0.1-0.1,0.4-0.3,0.7c-0.9,1.4-2,2.7-3.2,3.7c-1.6,1.3-2.9,2-4.3,2c-1.7,0-2.6-1-2.6-3.3c0-0.4,0.1-1.4,0.7-3
	c-1,1.7-1.9,2.6-2.2,3c-1,1.3-2,1.9-2.9,1.9c-1,0-1.6-0.9-1.6-2.6c0-1,0.3-2.3,1-3.7c0.7-1.7,1.6-2.4,2.3-2.4c0.4,0,0.7,0.1,0.7,0.4
	c0,0-0.4,0.7-1.2,2.2c-0.7,1.4-1.2,2.6-1.2,3.2c0,1,0.3,1.6,0.9,1.6c1,0,2.9-2.3,5.5-6.9c0.1-0.4,0.6-1,1-1.9
	c0.1-0.3,0.4-0.4,0.7-0.4c0.3,0,0.6,0.1,0.7,0.4c0.1,0.1,0.4,0.4,0.4,0.9c0,0-0.6,1-1.7,3.2c-1.2,2.2-1.7,3.7-1.7,5
	c0,1,0.4,1.7,1.6,1.7c0.9,0,2-0.4,3-1.6c0.7-0.7,1.7-1.7,2.6-2.9c0.7-1,1.3-1.6,1.3-1.6C318.9,271.2,319,271.2,319,271.4
	 M317.4,259.9c-0.1,0-0.1,0.1-0.1,0.1c-2.2,2.3-4.3,3.5-6.3,3.2c-1.7-0.3-2.6-1.3-2.7-2.9c0-0.3,0.1-0.6,0.1-0.7
	c0.1-0.3,0.1-0.4,0.4-0.4c0.1,0,0.3,0.3,0.4,0.7c0.1,0.6,0.4,1,0.6,1.3c0.4,0.6,1,0.9,1.9,1c1.7,0.3,3.3-0.4,5.2-2.3
	c0.1-0.3,0.4-0.4,0.6-0.3C317.4,259.8,317.4,259.9,317.4,259.9 M19.3,242.3l0.1-3.7H6.9v-14.8h1.2v13.5h9.4v-13.5h1.3v13.5h1.9v5
	H19.3z M27.4,228.2c3.9,0,5.2,3.2,4.8,5.9h-8.5c0.1,2.6,2.3,3.6,4.6,3.6c1.3,0,2.4-0.3,3.5-0.9v1.2c-1,0.4-2.2,0.7-3.5,0.7
	c-2.9,0-5.6-1.6-5.6-5.3C22.3,229.9,24.9,228.2,27.4,228.2 M27.5,229.2c-2,0-3.9,1.3-3.9,3.7H31C31.3,231.5,30.4,229.2,27.5,229.2
	 M35.3,238.6v-10.2h1.2v4.5h6.6v-4.5h1.3v10.2h-1.3v-4.5h-6.6v4.5H35.3z M50.9,238.6v-9.1h-4v-1.2h9.2v1.2h-4v9.1L50.9,238.6
	L50.9,238.6z M64,228.2c2.9,0,5,2.2,5,5.3c0,3.2-2.2,5.3-5,5.3c-2,0-3.5-1-4.2-2.2v6.6h-1.2v-15h1v2.2C60.5,229.2,62,228.2,64,228.2
	 M63.8,229.2c-2,0-3.5,1.3-4,2.9v2.9c0.6,1.6,2.2,2.9,4,2.9c2.2,0,4-1.6,4-4.2C67.9,231,66.1,229.2,63.8,229.2 M78.2,238.6v-10.2
	h1.3v4.5H86v-4.5h1.2v10.2H86v-4.5h-6.5v4.5H78.2z M100,237.7c0.3,0,0.6-0.1,0.9-0.1v1c-0.3,0.1-0.7,0.3-1,0.3
	c-0.9,0-1.6-0.4-1.7-1.6c-1,1-2.4,1.7-4.2,1.7c-1.7,0-3.5-1-3.5-3c0-2.6,2.3-3.5,4.5-3.5c1,0,2.2,0.1,3.2,0.4v-0.7
	c0-1.7-1.2-2.9-3.3-2.9c-1.6,0-2.9,0.3-3.6,0.7v-1.2c0.9-0.3,2.2-0.6,3.7-0.6c2.7,0,4.3,1.6,4.3,4.2v4.3
	C99.1,237.4,99.6,237.7,100,237.7 M94.1,237.9c1.6,0,3-0.7,4-2V234c-1-0.3-2-0.4-3-0.4c-1.6,0-3.5,0.6-3.5,2.2
	C91.5,237.2,92.8,237.9,94.1,237.9 M110.5,228.4h1.3l-5.2,11.8c-1,2.3-2.2,3.3-3.6,3.3c-0.3,0-0.7,0-1-0.1v-1c0.3,0.1,0.6,0.1,1,0.1
	c1.2,0,2.2-0.9,2.9-2.6l0.4-1.2l-5-10.4h1.3l4.3,8.9L110.5,228.4z M121.3,238.6v-3.7c-1,0.4-2,0.6-3.3,0.6c-2.4,0-4-1.2-4-3.6v-3.5
	h1.2v3.5c0,2,1.2,2.6,3.2,2.6c1.2,0,2-0.1,2.9-0.6v-5.3h1.2v10.2C122.6,238.6,121.3,238.6,121.3,238.6z M126.4,238.6v-10.2h1.3v4.5
	h6.5v-4.5h1.3v10.2h-1.3v-4.5h-6.5v4.5H126.4z M143.9,228.2c2.9,0,5.3,1.9,5.3,5.3c0,3.5-2.6,5.3-5.3,5.3s-5.3-1.9-5.3-5.3
	S141.2,228.2,143.9,228.2 M143.9,229.2c-2.2,0-4.2,1.6-4.2,4.2c0,2.7,1.9,4.2,4.2,4.2c2.2,0,4-1.6,4-4.2
	C148.1,230.8,146.1,229.2,143.9,229.2 M152.3,238.6v-10.2h1.2v8.4l6.9-8.4h1v10.2h-1.2v-8.4l-6.9,8.4H152.3z M156.9,226.6
	c-1,0-2-0.3-2.9-0.9v-1.2c1,0.7,1.9,1,2.9,1s1.9-0.3,2.9-1v1.3C158.9,226.5,157.9,226.6,156.9,226.6 M171.5,238.6v-10.2h1.2v4.5h2.3
	l3.7-4.5h1.3l-4,5l4.6,5.2h-1.4l-4.2-4.6h-2.3v4.6H171.5z M188.3,228.2c2.9,0,5,2.2,5,5.3c0,3.2-2.2,5.3-5,5.3c-2,0-3.5-1-4.2-2.2
	v6.6H183v-15h1v2.2C185,229.2,186.3,228.2,188.3,228.2 M188.2,229.2c-2,0-3.5,1.3-4,2.9v2.9c0.6,1.6,2.2,2.9,4,2.9
	c2.2,0,4-1.6,4-4.2C192.2,231,190.5,229.2,188.2,229.2 M205.6,237.7c0.3,0,0.6-0.1,0.9-0.1v1c-0.3,0.1-0.7,0.3-1,0.3
	c-0.9,0-1.6-0.4-1.7-1.6c-1,1-2.4,1.7-4.2,1.7s-3.5-1-3.5-3c0-2.6,2.3-3.5,4.5-3.5c1,0,2.2,0.1,3.2,0.4v-0.7c0-1.7-1.2-2.9-3.3-2.9
	c-1.6,0-2.9,0.3-3.6,0.7v-1.2c0.9-0.3,2.2-0.6,3.7-0.6c2.7,0,4.3,1.6,4.3,4.2v4.3C204.6,237.4,205.2,237.7,205.6,237.7 M199.6,237.9
	c1.6,0,3-0.7,4-2V234c-1-0.3-2-0.4-3-0.4c-1.6,0-3.5,0.6-3.5,2.2C197,237.2,198.3,237.9,199.6,237.9 M213.4,228.2c1,0,2.2,0.3,3,0.9
	v1.2c-0.9-0.6-1.9-1-2.9-1c-2.2,0-4.5,1.3-4.5,4.3c0,2.9,2.2,4.2,4.3,4.2c1.2,0,2.2-0.3,3.2-0.9v1.2c-1,0.4-2.2,0.7-3.5,0.7
	c-2.7,0-5.3-1.6-5.3-5.3C207.9,229.8,210.8,228.2,213.4,228.2 M224,228.2c2.9,0,5.3,1.9,5.3,5.3c0,3.5-2.6,5.3-5.3,5.3
	s-5.3-1.9-5.3-5.3C218.7,230.1,221.3,228.2,224,228.2 M224,229.2c-2.2,0-4.2,1.6-4.2,4.2c0,2.7,1.9,4.2,4.2,4.2c2.2,0,4-1.6,4-4.2
	C228.2,230.8,226.4,229.2,224,229.2 M234.9,238.6v-9.1H231v-1.2h8.9v1.2h-3.7v9.1L234.9,238.6L234.9,238.6z M242.5,238.6v-10.2h1.2
	v3.7h3.5c2.4,0,3.9,1.4,3.9,3.3s-1.6,3.3-3.9,3.3L242.5,238.6L242.5,238.6z M243.6,237.4h3.3c1.7,0,2.9-0.9,2.9-2.2
	c0-1.3-1-2.2-2.9-2.2h-3.3V237.4z M253.2,228.4h1.2v10.2h-1.2V228.4z"/>
</svg>
