<?xml version="1.0" encoding="utf-8"?>
<!-- Generator: Adobe Illustrator 19.0.0, SVG Export Plug-In . SVG Version: 6.00 Build 0)  -->
<svg version="1.1" id="Слой_1" xmlns="http://www.w3.org/2000/svg" xmlns:xlink="http://www.w3.org/1999/xlink" x="0px" y="0px"
	 viewBox="-140 380.1 314.2 81.8" style="enable-background:new -140 380.1 314.2 81.8;" xml:space="preserve">
<path d="M-106.6,426.7c3.7-14.5,12.1-20.3,16.6-21.6c2-0.6,3.9-0.9,5.5-0.9l0,0c3.2,0.1,5.5,1.2,7,2.8c0.1,0.1,0.1,0.1,0.3,0.3h-0.1
	c0.7,0.7,1.2,1.5,1.6,2.4c-1.9,0.1-4.2-0.9-7.2-0.9c-12.1,0-21.2,14.3-21.2,28.7c0,7.9,3.5,14.5,12.5,15.2c0.6,0.1,1.2,0.1,1.9,0.1
	c0.5,0,0.9,0,1.4-0.1l0,0c7.7-0.9,13.7-8,13.7-16c0-5.5-3-9.5-7.6-9.5c-3.9,0-7.2,3.5-7.2,7.1c0,2.4,1.2,4.1,3,4.1
	c1.5,0,2.3-1.3,2.3-2.5c0-1.8-1.2-2.8-2.7-3.2l0,0c-0.1,0-1-0.1-1.1-0.1c-0.3,0-0.7,0.1-1.1,0.1c0.3-1.3,1.2-2.6,2.4-3.7v-0.1
	c1.2-0.9,2.6-1.5,4.1-1.5c5.1,0,7.5,4.3,7.5,9.3c0,8.5-7,15.7-14.9,15.7c-0.3,0-0.5,0-0.7,0c-7.3-0.5-8.9-7-8.9-13.7
	c0-13,6.3-27,14.4-29.3l0,0c0.8-0.2,1.5-0.3,2.3-0.3c6.5,0,11.2,10,10.4,14.3c-0.2,1.2-0.5,1.8-0.5,1.8c-0.1,0.1-1.2,3.4-1.2,4
	c1,0.3,1.8,0.2,2.9,0.1c0.1,0,0.1,0.1,0.1,0.1c-0.7,0.6-1.7,0.7-2.6,0.5c0.7,1.5,2.2,4.5,2.8,5.1c1,1.4,1.2,1.9,2,2.6
	c1,0.9-0.4,1.6-1.1,2c-0.7,0.5-1.3,0.7-1.6,1.2c-0.9,1.6,0.2,2.7,0.8,3c0.6,0.3-0.1,1.3-0.7,1.7c-0.6,0.5-2.2,1.1-2.2,1.1
	s1.6,0.1,2,1.2c0.4,1.1-0.2,1.5-0.7,1.8c-0.5,0.3-1.2,1.1-1,2.6c0.3,1.4,0.4,2.9-1,4.3s-5.1,0.3-7.7-0.6c-2.4-0.8-5.1,0.3-6.4,1.6
	c-1.1,1.1-1.3,2.8-1,3.6C-92.6,460.1-113.9,454.8-106.6,426.7 M-110.3,380.1v0.3c0,0.9,3.2,0.7,6.4,1.6c3.9,1,4.5,3.1,4.3,5.3
	c-0.1,1.6-1.2,6.1-2.2,8.5c-8.1,22.1-15.6,41.4-17.8,47.2c-8,20.8-20.4,16.6-20.4,18.5v0.3h18.4c0,0,12.5,1.2,9.7-16.6
	c0.4,2.2,2,8.9,5.5,13.5c2.3,3.1,7.2,3.1,7.2,3.1h12.4h0.3h4.5c0,0,12.6,0,12.9-9.1c0.1-1.3,2,0.9,3.9,3.5c2.7,3.6,6.7,5.7,11,5.7
	h14v-0.5c0-1.4-10.9,1.3-14.7-10.5l-23.4-66.1c0,0-0.9-2.4-2.3-3.5c-1.5-1.1-4.5-1.1-4.5-1.1h-25.2L-110.3,380.1L-110.3,380.1z
	 M-18.2,423.9c0,0.1-0.1,0.2-0.1,0.3c-1.9,3.1-3.5,7-4.7,11.6c1,0.3,1.5,0.6,1.5,0.9c0,0.2-0.1,0.3-0.3,0.3c0,0-0.2-0.1-0.6-0.2
	s-0.6-0.2-0.7-0.3c-0.6,2.6-0.9,4.7-0.9,6.3c0,0.7,0.1,1.2,0.3,1.2c0.2,0,0.5-0.1,0.8-0.4c0.3-0.3,0.5-0.4,0.6-0.4
	c0.2,0,0.3,0.1,0.3,0.3c0,0.3-0.2,0.5-0.7,0.7c-0.4,0.3-0.8,0.4-1.1,0.4c-0.8,0-1.3-0.7-1.3-2.1c0-1.4,0.3-3.5,0.8-6.2
	c-1.2-0.1-2.4-0.3-3.9-0.3c-0.7,0.8-1.6,1.8-2.6,3c-1.8,1.9-3.1,3.2-4.1,3.9c-1.7,1.2-3.5,1.8-5.2,1.8c-1.2,0-2.2-0.3-2.8-0.8
	c-0.9-0.5-1.3-1.4-1.3-2.6c0-1.3,0.5-2.4,1.6-3.5c0.9-0.9,2.1-1.6,3.5-2c2.2-0.6,5.7-0.9,10.6-0.9c1.4-1.7,2.8-3.5,4.3-5.4
	c0.4-0.5,1-1.4,1.8-2.5c0.1-0.1,0.2-0.1,0.3-0.1c0.3,0,0.4,0.1,0.4,0.4c0,0.1,0,0.1-0.1,0.2c-0.1,0.2-0.8,1.1-2,2.7
	c-1.4,1.9-2.6,3.5-3.5,4.6c1.1,0.1,2.2,0.2,3.3,0.5c0.6-2.8,1.4-5.4,2.4-7.9c0.3-0.7,0.7-1.6,1.4-2.9c0.1-0.1,0.4-0.4,0.9-0.7
	c0.5-0.3,0.9-0.5,1-0.5C-18.4,423.6-18.2,423.7-18.2,423.9 M-24.7,433.2H-26c-5.1,0-8.8,0.4-11.5,1c-1.4,0.5-2.7,1.2-3.8,2.2
	c-1.3,1.2-1.8,2.4-1.8,3.9c0,1,0.5,1.7,1.3,2.2c0.6,0.5,1.5,0.6,2.6,0.6c2.3,0,4.4-0.7,6.6-2.2c1.4-0.9,3.2-2.5,5.2-4.8
	C-26.6,435.2-25.6,434.3-24.7,433.2 M-12.1,437.2c-0.7,0.9-1.4,1.8-2.1,2.7c-0.7,0.8-1.2,1.5-1.6,1.9c-0.6,0.6-1.2,0.9-1.8,1.2
	c-0.5,0.2-1,0.2-1.4,0c-0.4-0.2-0.7-0.5-0.8-1.1c-0.1-0.5-0.2-1.2,0-2.1c0.1-0.4,0.2-0.7,0.3-0.9c0.2-0.1,0.3-0.2,0.5-0.2
	s0.4,0.1,0.5,0.2c0.1,0.1,0.3,0.3,0.3,0.4c-0.3,0.9-0.5,1.6-0.5,2.2c0,0.5,0.1,0.9,0.5,1c0.3,0.1,0.7,0,1.2-0.4c0.5-0.3,1.2-1,1.8-2
	c0.1-0.2,0.4-0.5,0.7-1c0.3-0.5,0.9-1.1,1.5-1.8c0.2-0.3,0.4-0.5,0.6-0.7c0.2-0.2,0.5-0.5,0.9-1.1c0.1-0.1,0.3-0.2,0.5-0.2
	c0.5,0,0.7,0.3,0.7,0.7c0,0.1-0.1,0.3-0.1,0.4c-1.2,2-1.8,3.7-1.8,4.8c0,0.8,0.4,1.3,1.2,1.3c0.6,0,1.3-0.3,2-0.9
	c0.5-0.4,1-1,1.6-1.8c0.5-0.6,0.7-0.9,0.8-0.9c0.1,0,0.1,0.1,0.1,0.2s-0.1,0.3-0.2,0.5c-1.5,2.5-3.1,3.7-4.7,3.7
	c-1.3,0-1.9-0.8-1.9-2.4C-13.1,439.5-12.7,438.3-12.1,437.2 M-3.1,437.4c-0.4,0.7-0.7,1.5-1,2.3c-0.3,0.8-0.5,1.4-0.5,1.8
	c0,0.7,0.3,1.2,1.1,1.2c0.5,0,1-0.2,1.6-0.6s1.1-0.8,1.6-1.4c-0.5,0.1-1.1-0.1-1.4-0.3c-0.4-0.3-0.6-0.7-0.6-1.4
	c-0.1-0.4,0-0.7,0.2-1.2c0.2-0.3,0.5-0.7,0.7-0.9c0.3-0.3,0.7-0.4,1.1-0.5c0.4-0.1,0.7-0.1,1.1,0c0.3,0.1,0.6,0.3,0.7,0.7
	c0.2,0.3,0.3,0.9,0.2,1.5c0,0.3-0.1,0.6-0.2,0.9c0.5-0.3,1-0.5,1.4-0.9c0.5-0.3,0.9-0.7,1.2-1.1l0.4,0.1c-0.1,0.2-0.3,0.5-0.5,0.7
	c-0.2,0.3-0.5,0.5-0.8,0.7c-0.3,0.3-0.7,0.5-1,0.7c-0.4,0.2-0.7,0.4-1.2,0.5c-0.3,0.4-0.6,0.7-0.9,1.1c-0.4,0.3-0.8,0.6-1.2,0.8
	c-0.4,0.3-0.9,0.5-1.4,0.6c-0.5,0.1-0.9,0.3-1.4,0.3c-1.3,0.1-1.9-0.5-1.9-1.9c0-0.6,0.1-1.3,0.3-2c0.2-0.7,0.5-1.5,0.8-2.2
	c0.3-0.7,0.7-1.4,1.1-2.1c0.4-0.7,0.7-1.2,1.2-1.7c0.1-0.1,0.2-0.1,0.3-0.1s0.3,0.1,0.5,0.2c0.1,0.1,0.3,0.2,0.4,0.3
	c0.1,0.1,0.1,0.3,0.1,0.4c0,0.1-0.1,0.3-0.1,0.3c-0.1,0.1-0.2,0.3-0.4,0.6c-0.2,0.3-0.4,0.5-0.6,0.9c-0.2,0.3-0.4,0.6-0.6,0.9
	C-3,437.2-3.1,437.4-3.1,437.4 M0.3,439.7c0.3-0.5,0.3-0.9,0.3-1.2c0-0.3-0.1-0.5-0.3-0.7c-0.2-0.1-0.5-0.2-0.7-0.2
	c-0.3,0-0.5,0.1-0.8,0.3c-0.3,0.1-0.4,0.3-0.5,0.6c-0.1,0.3-0.1,0.5,0,0.9c0.1,0.3,0.3,0.5,0.7,0.7c0.3,0.1,0.7,0.1,1.2-0.1
	c0.1-0.1,0.1-0.1,0.1-0.2C0.3,439.8,0.3,439.7,0.3,439.7 M18.3,428.2c-0.3,0.4-0.9,0.8-1.6,1.1c-0.7,0.3-2,0.5-3.5,0.6
	c-0.9,0.1-1.8,0.3-2.6,0.9c-0.8,0.6-1.6,1.6-2.4,2.8c-0.4,0.6-0.7,1.2-0.9,1.6s-0.4,0.7-0.6,1.1c-0.1,0.3-0.3,0.6-0.4,0.9
	c-0.1,0.3-0.2,0.6-0.3,1c0.5-1,1.2-2,2-2.8c1.1-1.2,2-1.8,2.8-1.8c0.7,0,1,0.5,1,1.4c0,1.4-0.4,2.9-1.3,4.7
	c-0.5,1.2-1.4,2.2-2.2,3.1c-1.1,1-2.2,1.6-3.4,1.6c-0.9,0-1.4-0.1-1.4-0.5c0-0.1,0.1-0.2,0.2-0.2c0.1,0,0.2,0.1,0.5,0.1
	s0.5,0.1,0.7,0.1c1,0,2-0.5,2.9-1.7c0.7-0.9,1.4-1.8,1.8-3c0.4-1,0.6-2.1,0.6-3.3c0-0.7-0.1-1.1-0.5-1.1c-0.7,0-1.7,1-2.9,3
	c-1.2,1.9-1.7,3.3-1.7,4.2c0,0.3,0.1,0.4,0.3,0.5c0.1,0.1,0.3,0.3,0.3,0.3c0,0.1-0.1,0.1-0.1,0.1c-0.8,0-1.2-0.6-1.2-1.8
	c0-0.9,0.2-1.9,0.7-3.1c0.5-1.2,1-2.4,1.8-3.7c0.7-1.2,1.6-2.4,2.6-3.4c0.9-1,2-1.8,3-2.2c0.5-0.2,1-0.4,1.5-0.5
	c0.5-0.1,0.9-0.2,1.3-0.3c0.4-0.1,0.7-0.1,1-0.2c0.3-0.1,0.6-0.1,0.8-0.3c0.3-0.1,0.6-0.3,0.8-0.4s0.4-0.2,0.5-0.3
	c0.1,0,0.2,0.1,0.2,0.3C18.5,427.3,18.4,427.7,18.3,428.2 M23.7,438.9c0,0.1-0.1,0.3-0.2,0.5c-0.6,1-1.4,1.9-2.2,2.6
	c-1.1,0.9-2,1.4-3,1.4c-1.2,0-1.8-0.7-1.8-2.3c0-0.3,0.1-1,0.5-2.1c-0.7,1.2-1.3,1.8-1.5,2.1c-0.7,0.9-1.4,1.3-2,1.3
	c-0.7,0-1.1-0.6-1.1-1.8c0-0.7,0.2-1.6,0.7-2.6c0.5-1.2,1.1-1.7,1.6-1.7c0.3,0,0.5,0.1,0.5,0.3c0,0-0.3,0.5-0.8,1.5
	c-0.5,0.9-0.8,1.8-0.8,2.2c0,0.7,0.2,1.1,0.6,1.1c0.7,0,2-1.6,3.8-4.8c0.1-0.3,0.4-0.7,0.7-1.3c0.1-0.2,0.3-0.3,0.5-0.3
	s0.4,0.1,0.5,0.3c0.1,0.1,0.3,0.3,0.3,0.6c0,0-0.4,0.7-1.2,2.2s-1.2,2.6-1.2,3.5c0,0.7,0.3,1.2,1.1,1.2c0.6,0,1.4-0.3,2.1-1.1
	c0.5-0.5,1.2-1.2,1.8-2c0.5-0.7,0.9-1.1,0.9-1.1C23.7,438.7,23.7,438.7,23.7,438.9 M29,437c0.1-0.1,0.1-0.2,0.2-0.3
	c0.1-0.1,0.1-0.3,0.2-0.5c0.1-0.2,0.1-0.3,0.2-0.5c0.1-0.1,0.1-0.3,0.2-0.3c0.1-0.1,0.3-0.2,0.5-0.2c0.5,0,0.7,0.3,0.7,0.7
	c0,0.1-0.1,0.3-0.1,0.4c-1.2,2-1.8,3.7-1.8,4.8c0,0.8,0.4,1.3,1.2,1.3c0.6,0,1.3-0.3,2-0.9c0.5-0.4,1-1,1.6-1.8
	c0.5-0.6,0.7-0.9,0.8-0.9s0.1,0.1,0.1,0.2s-0.1,0.3-0.2,0.5c-1.5,2.5-3.1,3.7-4.7,3.7c-1.3,0-1.9-0.8-1.9-2.4c0-0.9,0.1-1.7,0.4-2.5
	c-0.5,0.1-1.1,0.3-1.6,0.5c-0.5,0.2-1.2,0.4-1.7,0.6c-0.1,0.2-0.1,0.3-0.1,0.5c-0.1,0.1-0.1,0.3-0.1,0.5c-0.2,1-0.4,1.8-0.6,2.1
	c-0.2,0.4-0.5,0.5-0.7,0.5s-0.3-0.2-0.3-0.6c0-0.1,0-0.2,0.1-0.3c0.3-0.5,0.5-1.2,0.7-2c0.3-0.8,0.5-1.7,0.7-2.8
	c0.1-0.2,0.1-0.4,0.1-0.7c0.1-0.3,0.1-0.5,0.2-0.9c0.1-0.1,0.2-0.3,0.5-0.5c0.3-0.1,0.5-0.2,0.7-0.2c0.1,0,0.2,0.1,0.2,0.2
	s-0.1,0.5-0.3,1s-0.4,1.4-0.7,2.4c0.3-0.1,0.7-0.2,1.2-0.4c0.4-0.1,0.9-0.3,1.6-0.5c0.1,0,0.4-0.1,0.7-0.2
	C28.7,437.5,28.9,437.3,29,437 M50.7,439c0,0.2-0.1,0.3-0.2,0.5c-2,2.6-3.7,4-5.2,4c-1.2,0-1.8-0.7-1.8-2c0-0.5,0.2-1.4,0.5-2.4
	c-0.7,0.5-1.5,1-2.4,1.4c-0.3,0.4-0.6,0.7-0.9,1.1c-0.4,0.3-0.8,0.6-1.2,0.8c-0.4,0.3-0.9,0.5-1.4,0.6s-0.9,0.3-1.4,0.3
	c-1.3,0.1-1.9-0.5-1.9-1.9c0-0.6,0.1-1.3,0.3-2c0.2-0.7,0.5-1.5,0.8-2.2c0.3-0.7,0.7-1.4,1.1-2.1c0.4-0.7,0.7-1.2,1.2-1.7
	c0.1-0.1,0.2-0.2,0.3-0.1s0.3,0.1,0.5,0.2c0.1,0.1,0.3,0.2,0.4,0.3c0.1,0.1,0.1,0.3,0.1,0.4s-0.1,0.2-0.1,0.3
	c-0.1,0.1-0.2,0.3-0.4,0.6c-0.2,0.3-0.4,0.5-0.6,0.9c-0.2,0.3-0.4,0.6-0.6,0.9c-0.2,0.3-0.3,0.5-0.4,0.5c-0.4,0.7-0.7,1.5-1,2.3
	c-0.3,0.8-0.5,1.4-0.5,1.8c0,0.7,0.3,1.2,1.1,1.2c0.5,0,1-0.2,1.6-0.6c0.6-0.4,1.1-0.8,1.6-1.4c-0.5,0.1-1.1-0.1-1.4-0.3
	c-0.4-0.3-0.6-0.7-0.6-1.4c-0.1-0.4,0.1-0.7,0.2-1.2c0.2-0.3,0.5-0.7,0.7-0.9c0.3-0.3,0.7-0.4,1.1-0.5s0.7-0.1,1.1,0
	c0.3,0.1,0.6,0.3,0.7,0.7c0.2,0.3,0.3,0.9,0.2,1.5c0,0.3-0.1,0.6-0.2,0.9c0.5-0.2,0.9-0.5,1.3-0.7c0.4-0.3,0.8-0.6,1.1-0.9
	c0.1-0.3,0.3-0.6,0.5-0.8c0.1-0.3,0.3-0.5,0.5-0.7c0.1-0.2,0.3-0.3,0.5-0.3s0.4,0.1,0.5,0.3c0.1,0.2,0.3,0.3,0.3,0.5
	c0,0.1-0.1,0.3-0.1,0.3c-1.1,1.8-1.6,3.2-1.6,4.3c0,0.8,0.3,1.2,0.9,1.2s1.4-0.3,2.2-1.1c0.3-0.3,0.5-0.5,0.8-0.8
	c0.3-0.3,0.6-0.7,0.9-1.1l0.9-1.1C50.6,438.7,50.7,438.8,50.7,439 M41.1,439.7c0.3-0.5,0.3-0.9,0.3-1.2c0-0.3-0.1-0.5-0.3-0.7
	c-0.2-0.1-0.5-0.2-0.7-0.2c-0.3,0-0.5,0.1-0.8,0.3c-0.3,0.1-0.4,0.3-0.5,0.6c-0.1,0.3-0.1,0.5,0,0.9c0.1,0.3,0.3,0.5,0.7,0.7
	c0.3,0.1,0.7,0.1,1.2-0.1c0.1-0.1,0.1-0.1,0.1-0.2C41,439.8,41,439.7,41.1,439.7 M78.2,427.5c0,1.5-0.8,2.8-2.5,4.1
	c-1.6,1.2-3.1,1.8-4.7,1.8c-1.6,0-2.4-0.6-2.4-1.8c0-0.9,0.2-1.4,0.6-1.4c0.1,0,0.2,0.1,0.2,0.3c0,0.1,0,0.1,0,0.3
	c0,0.1,0,0.2,0,0.3c0,0.9,0.5,1.3,1.7,1.3s2.5-0.5,4-1.7c1.5-1.2,2.2-2.2,2.2-3.3s-0.9-1.6-2.7-1.6c-0.4,0-0.7,0-1.1,0.1
	c-1.9,0.2-4.1,1-6.5,2.4s-4.5,3.1-6,4.9c-1.8,2.1-2.7,4.1-2.7,6.1c0,1.2,0.4,2.2,1.2,2.8c0.7,0.5,1.7,0.9,3,0.9
	c4,0,7.9-1.6,11.7-4.7c0.1-0.1,0.2-0.1,0.3-0.1c0.3,0,0.4,0.1,0.4,0.4c0,0.1-0.1,0.2-0.1,0.3c-1.6,1.5-3.5,2.7-5.7,3.8
	c-2.4,1.2-4.6,1.7-6.6,1.7c-1.6,0-2.9-0.3-3.9-1c-1.2-0.7-1.8-1.9-1.8-3.5c0-1.8,0.7-3.8,2.2-5.9c1.8-2.5,4-4.6,6.8-6.3
	c3-1.8,5.9-2.8,8.8-2.8C77,425,78.2,425.8,78.2,427.5 M86,439.1c0,0.1-0.1,0.3-0.2,0.5c-0.9,1.6-1.9,2.6-2.8,3
	c-0.4,0.2-0.8,0.3-1.2,0.3c-1.4,0-2-0.9-2-2.8c0-0.3,0-0.6,0.1-1c-1.5,2.6-2.8,3.9-3.9,3.9c-0.7,0-1-0.4-1-1.2
	c0-1.2,0.5-2.5,1.6-4.1s2.2-2.6,3.2-3c0.4-0.1,0.7-0.2,1.1-0.2c0.8,0,1.4,0.3,1.7,0.8c0.1,0.1,0.1,0.2,0.1,0.2s-0.1,0.1-0.2,0.1
	c-0.1,0.1-0.3,0.1-0.3,0.2c-0.5,0.9-0.8,2.2-0.8,3.9c0,1.6,0.3,2.4,1,2.4c0.5,0,1.2-0.5,2-1.6c0.9-1.1,1.4-1.6,1.4-1.6
	C86,438.9,86,439,86,439.1 M81.1,435.6c-0.1,0-0.2,0-0.3,0c-0.9,0-1.8,0.5-2.8,1.7c-1.4,1.6-2,3-2,4c0,0.5,0.1,0.7,0.5,0.7
	c0.5,0,1.1-0.5,1.9-1.5C79.5,439.1,80.4,437.5,81.1,435.6 M93.1,437c-0.5,0.9-0.9,1.8-1.4,2.8c-0.5,0.9-0.9,1.6-1.4,2
	c-0.6,0.6-1.2,0.9-1.8,1.2c-0.5,0.2-1,0.2-1.4,0c-0.4-0.2-0.7-0.5-0.8-1.1c-0.1-0.5-0.2-1.2,0-2.1c0.1-0.4,0.2-0.7,0.3-0.9
	c0.2-0.1,0.3-0.2,0.5-0.2s0.4,0.1,0.5,0.2c0.1,0.1,0.3,0.3,0.3,0.4c-0.3,0.9-0.5,1.6-0.5,2.2c0,0.5,0.1,0.9,0.5,1
	c0.3,0.1,0.7,0,1.2-0.4c0.5-0.3,1.2-1,1.8-2c0.3-0.3,0.5-0.8,0.8-1.4c0.3-0.6,0.7-1.4,0.9-2.6c0.8-0.4,1.4-0.6,1.8-0.6
	c0.3,0,0.5,0.1,0.6,0.4c0,0.3-0.1,0.7-0.3,1.2s-0.4,0.9-0.7,1.5s-0.5,1-0.7,1.5S93,441,93,441.3c0.1-0.1,0.2-0.3,0.3-0.5
	c0.2-0.2,0.4-0.5,0.7-0.8c0.3-0.3,0.5-0.7,0.9-1c0.3-0.4,0.7-0.7,1-1.2c0.4-0.5,1.2-1.3,2-2.2c0.1-0.1,0.2-0.1,0.3-0.2
	c0.1-0.1,0.2-0.1,0.3-0.1c0.5,0,0.7,0.3,0.7,0.7c0,0.1-0.1,0.3-0.1,0.4c-1.2,2-1.8,3.7-1.8,4.8c0,0.8,0.4,1.3,1.2,1.3
	c0.6,0,1.3-0.3,2-0.9c0.5-0.4,1-1,1.6-1.8c0.5-0.6,0.7-0.9,0.8-0.9s0.1,0.1,0.1,0.2s-0.1,0.3-0.2,0.5c-1.5,2.5-3.1,3.7-4.7,3.7
	c-1.3,0-1.9-0.8-1.9-2.4c0-0.7,0.1-1.4,0.2-2c0.1-0.6,0.3-1.2,0.7-1.7c-0.5,0.4-0.8,0.8-1.2,1.3c-0.3,0.4-0.7,0.9-1.2,1.5
	c-0.2,0.3-0.4,0.5-0.6,0.8c-0.2,0.3-0.4,0.5-0.6,0.7c-0.2,0.2-0.4,0.4-0.6,0.5c-0.2,0.1-0.4,0.1-0.6,0c-0.3-0.1-0.3-0.5-0.2-1
	s0.3-1,0.5-1.6c0.2-0.5,0.4-1.1,0.6-1.6c0.2-0.5,0.3-0.7,0.2-0.8C93.3,437,93.2,437,93.1,437C93.1,436.8,93.1,436.9,93.1,437
	 M111.9,439.3C111.9,439.4,111.9,439.4,111.9,439.3c-0.4,0.6-0.8,1-1.5,1.5c-0.6,0.4-1.2,0.5-1.8,0.5c-0.5,0-0.9-0.1-1.2-0.3
	c-1,1.6-2,2.4-3.1,2.4c-0.7,0-1.2-0.5-1.2-1.4c0-1.3,0.5-2.7,1.6-4.4c-0.1-0.3-0.1-0.5-0.1-0.7c0-0.8,0.3-1.6,0.8-2.3s1.2-1.2,2-1.2
	c0.5,0,0.9,0.3,1.2,0.9c0.3,0.5,0.3,1,0.3,1.6c0,1.2-0.5,2.7-1.4,4.5c0.3,0.2,0.7,0.3,1.2,0.3c0.7,0,1.4-0.3,2-0.9
	c0.6-0.5,0.9-0.9,0.9-0.9C111.9,439,111.9,439.1,111.9,439.3 M106.9,440.6c-0.7-0.5-1.3-1-1.6-1.7c-0.7,1.4-1,2.4-1,3
	c0,0.5,0.1,0.7,0.5,0.7s0.7-0.3,1.2-0.8C106.4,441.4,106.7,441,106.9,440.6 M108,436.7c0-0.5-0.1-0.9-0.2-1.5
	c-0.2-0.7-0.5-1.1-0.9-1.1c-0.5,0-0.9,0.3-1.2,0.9c-0.2,0.5-0.3,1-0.3,1.6c0.3-0.4,0.7-0.6,1.1-0.6c0.3,0,0.5,0.1,0.7,0.3v0.1
	c0,0.1,0,0.1,0,0.1c0,0.1-0.1,0.1-0.3,0.1c-0.4,0-0.8,0.4-1.3,1.3c0.3,0.8,0.8,1.5,1.5,2C107.7,438.7,108,437.6,108,436.7
	 M123,438.9c0,0.1-0.1,0.3-0.2,0.5c-0.6,1-1.4,1.9-2.2,2.6c-1.1,0.9-2,1.4-3,1.4c-1.2,0-1.8-0.7-1.8-2.3c0-0.3,0.1-1,0.5-2.1
	c-0.7,1.2-1.3,1.8-1.5,2.1c-0.7,0.9-1.4,1.3-2,1.3c-0.7,0-1.1-0.6-1.1-1.8c0-0.7,0.2-1.6,0.7-2.6c0.5-1.2,1.1-1.7,1.6-1.7
	c0.3,0,0.5,0.1,0.5,0.3c0,0-0.3,0.5-0.8,1.5s-0.8,1.8-0.8,2.2c0,0.7,0.2,1.1,0.6,1.1c0.7,0,2-1.6,3.8-4.8c0.1-0.3,0.4-0.7,0.7-1.3
	c0.1-0.2,0.3-0.3,0.5-0.3s0.4,0.1,0.5,0.3c0.1,0.1,0.3,0.3,0.3,0.6c0,0-0.4,0.7-1.2,2.2s-1.2,2.6-1.2,3.5c0,0.7,0.3,1.2,1.1,1.2
	c0.6,0,1.4-0.3,2.1-1.1c0.5-0.5,1.2-1.2,1.8-2c0.5-0.7,0.9-1.1,0.9-1.1C123,438.7,123,438.7,123,438.9 M122,430.9
	c-0.1,0-0.1,0.1-0.1,0.1c-1.5,1.6-3,2.4-4.4,2.2c-1.2-0.2-1.8-0.9-1.9-2c0-0.2,0.1-0.4,0.1-0.5c0.1-0.2,0.1-0.3,0.3-0.3
	c0.1,0,0.2,0.2,0.3,0.5c0.1,0.4,0.3,0.7,0.4,0.9c0.3,0.4,0.7,0.6,1.3,0.7c1.2,0.2,2.3-0.3,3.6-1.6c0.1-0.2,0.3-0.3,0.4-0.2
	C122,430.8,122,430.9,122,430.9 M130.9,437.2c-0.7,0.9-1.4,1.8-2.1,2.7c-0.7,0.8-1.2,1.5-1.6,1.9c-0.6,0.6-1.2,0.9-1.8,1.2
	c-0.5,0.2-1,0.2-1.4,0c-0.4-0.2-0.7-0.5-0.8-1.1c-0.1-0.5-0.2-1.2,0-2.1c0.1-0.4,0.2-0.7,0.3-0.9c0.2-0.1,0.3-0.2,0.5-0.2
	s0.4,0.1,0.5,0.2c0.1,0.1,0.3,0.3,0.3,0.4c-0.3,0.9-0.5,1.6-0.5,2.2c0,0.5,0.1,0.9,0.5,1c0.3,0.1,0.7,0,1.2-0.4c0.5-0.3,1.2-1,1.8-2
	c0.1-0.2,0.4-0.5,0.7-1s0.9-1.1,1.5-1.8c0.2-0.3,0.4-0.5,0.6-0.7c0.2-0.2,0.5-0.5,0.9-1.1c0.1-0.1,0.3-0.2,0.5-0.2
	c0.5,0,0.7,0.3,0.7,0.7c0,0.1-0.1,0.3-0.1,0.4c-1.2,2-1.8,3.7-1.8,4.8c0,0.8,0.4,1.3,1.2,1.3c0.6,0,1.3-0.3,2-0.9
	c0.5-0.4,1-1,1.6-1.8c0.5-0.6,0.7-0.9,0.8-0.9s0.1,0.1,0.1,0.2s-0.1,0.3-0.2,0.5c-1.5,2.5-3.1,3.7-4.7,3.7c-1.3,0-1.9-0.8-1.9-2.4
	C130,439.5,130.2,438.3,130.9,437.2 M145.9,439.3C145.9,439.4,145.9,439.4,145.9,439.3c-0.4,0.6-0.8,1-1.5,1.5
	c-0.6,0.4-1.2,0.5-1.8,0.5c-0.5,0-0.9-0.1-1.2-0.3c-1,1.6-2,2.4-3.1,2.4c-0.7,0-1.2-0.5-1.2-1.4c0-1.3,0.5-2.7,1.6-4.4
	c-0.1-0.3-0.1-0.5-0.1-0.7c0-0.8,0.3-1.6,0.8-2.3s1.2-1.2,2-1.2c0.5,0,0.9,0.3,1.2,0.9c0.3,0.5,0.3,1,0.3,1.6c0,1.2-0.5,2.7-1.4,4.5
	c0.3,0.2,0.7,0.3,1.2,0.3c0.7,0,1.4-0.3,2-0.9c0.6-0.5,0.9-0.9,0.9-0.9C145.8,439,145.9,439.1,145.9,439.3 M140.9,440.6
	c-0.7-0.5-1.3-1-1.6-1.7c-0.7,1.4-1,2.4-1,3c0,0.5,0.1,0.7,0.5,0.7c0.3,0,0.7-0.3,1.2-0.8C140.4,441.4,140.7,441,140.9,440.6
	 M142,436.7c0-0.5-0.1-0.9-0.2-1.5c-0.2-0.7-0.5-1.1-0.9-1.1c-0.5,0-0.9,0.3-1.2,0.9c-0.2,0.5-0.3,1-0.3,1.6
	c0.3-0.4,0.7-0.6,1.1-0.6c0.3,0,0.5,0.1,0.7,0.3v0.1c0,0.1,0,0.1,0,0.1c0,0.1-0.1,0.1-0.3,0.1c-0.4,0-0.8,0.4-1.3,1.3
	c0.3,0.8,0.8,1.5,1.5,2C141.7,438.7,142,437.6,142,436.7 M149.8,433.7c-0.4,0.6-0.7,1.3-1.2,2.2c-0.4,0.9-0.7,1.6-0.9,2.4
	c0.5-1,1.2-2,2-2.8c1.1-1.2,2-1.8,2.8-1.8c0.7,0,1,0.5,1,1.4c0,1.4-0.4,2.9-1.3,4.7c-0.5,1.2-1.4,2.2-2.2,3.1
	c-1.1,1-2.2,1.6-3.4,1.6c-0.9,0-1.4-0.1-1.4-0.5c0-0.1,0.1-0.2,0.2-0.2c0.1,0,0.2,0.1,0.5,0.1c0.3,0.1,0.5,0.1,0.7,0.1
	c1,0,2-0.5,2.9-1.7c0.7-0.9,1.4-1.8,1.8-3c0.4-1,0.6-2.1,0.6-3.3c0-0.7-0.1-1.1-0.5-1.1c-0.7,0-1.7,1-2.9,3
	c-1.2,1.9-1.7,3.3-1.7,4.2c0,0.3,0.1,0.4,0.3,0.5c0.1,0.1,0.3,0.3,0.3,0.3l-0.1,0.1c-0.8,0-1.2-0.6-1.2-1.8c0-0.8,0.2-1.9,0.6-3.3
	s1-2.8,1.9-4.6c0.7-1.4,1.9-3.5,3.7-6.2c2.7-4.3,4.9-6.4,6.6-6.4c1,0,1.5,0.5,1.5,1.4c0,1.6-1.4,3.8-4.1,6.6
	C154.3,430.6,152.2,432.2,149.8,433.7 M159.6,422.7c0-0.5-0.2-0.7-0.5-0.7c-0.5,0-1.5,0.5-2.7,1.4c-2.2,1.7-4,4.3-5.5,7.8
	c-0.3,0.6-0.4,1.1-0.5,1.4c1.6-0.9,3.4-2.4,5.5-4.5C158.3,425.8,159.6,424,159.6,422.7 M163,439.3C163,439.4,163,439.4,163,439.3
	c-0.4,0.6-0.8,1-1.5,1.5c-0.6,0.4-1.2,0.5-1.8,0.5c-0.5,0-0.9-0.1-1.2-0.3c-1,1.6-2,2.4-3.1,2.4c-0.7,0-1.2-0.5-1.2-1.4
	c0-1.3,0.5-2.7,1.6-4.4c-0.1-0.3-0.1-0.5-0.1-0.7c0-0.8,0.3-1.6,0.8-2.3s1.2-1.2,2-1.2c0.5,0,0.9,0.3,1.2,0.9c0.3,0.5,0.3,1,0.3,1.6
	c0,1.2-0.5,2.7-1.4,4.5c0.3,0.2,0.7,0.3,1.2,0.3c0.7,0,1.4-0.3,2-0.9c0.6-0.5,0.9-0.9,0.9-0.9C162.9,439,163,439.1,163,439.3
	 M158,440.6c-0.7-0.5-1.3-1-1.6-1.7c-0.7,1.4-1,2.4-1,3c0,0.5,0.1,0.7,0.5,0.7c0.3,0,0.7-0.3,1.2-0.8
	C157.5,441.4,157.7,441,158,440.6 M159,436.7c0-0.5-0.1-0.9-0.2-1.5c-0.2-0.7-0.5-1.1-0.9-1.1c-0.5,0-0.9,0.3-1.2,0.9
	c-0.2,0.5-0.3,1-0.3,1.6c0.3-0.4,0.7-0.6,1.1-0.6c0.3,0,0.5,0.1,0.7,0.3v0.1c0,0.1,0,0.1,0,0.1c0,0.1-0.1,0.1-0.3,0.1
	c-0.4,0-0.8,0.4-1.3,1.3c0.3,0.8,0.8,1.5,1.5,2C158.8,438.7,159,437.6,159,436.7 M174.2,438.9c0,0.1-0.1,0.3-0.2,0.5
	c-0.6,1-1.4,1.9-2.2,2.6c-1.1,0.9-2,1.4-3,1.4c-1.2,0-1.8-0.7-1.8-2.3c0-0.3,0.1-1,0.5-2.1c-0.7,1.2-1.3,1.8-1.5,2.1
	c-0.7,0.9-1.4,1.3-2,1.3c-0.7,0-1.1-0.6-1.1-1.8c0-0.7,0.2-1.6,0.7-2.6c0.5-1.2,1.1-1.7,1.6-1.7c0.3,0,0.5,0.1,0.5,0.3
	c0,0-0.3,0.5-0.8,1.5s-0.8,1.8-0.8,2.2c0,0.7,0.2,1.1,0.6,1.1c0.7,0,2-1.6,3.8-4.8c0.1-0.3,0.4-0.7,0.7-1.3c0.1-0.2,0.3-0.3,0.5-0.3
	s0.4,0.1,0.5,0.3c0.1,0.1,0.3,0.3,0.3,0.6c0,0-0.4,0.7-1.2,2.2s-1.2,2.6-1.2,3.5c0,0.7,0.3,1.2,1.1,1.2c0.6,0,1.4-0.3,2.1-1.1
	c0.5-0.5,1.2-1.2,1.8-2c0.5-0.7,0.9-1.1,0.9-1.1C174.1,438.7,174.2,438.7,174.2,438.9 M173.1,430.9c-0.1,0-0.1,0.1-0.1,0.1
	c-1.5,1.6-3,2.4-4.4,2.2c-1.2-0.2-1.8-0.9-1.9-2c0-0.2,0.1-0.4,0.1-0.5c0.1-0.2,0.1-0.3,0.3-0.3c0.1,0,0.2,0.2,0.3,0.5
	c0.1,0.4,0.3,0.7,0.4,0.9c0.3,0.4,0.7,0.6,1.3,0.7c1.2,0.2,2.3-0.3,3.6-1.6c0.1-0.2,0.3-0.3,0.4-0.2
	C173.1,430.8,173.1,430.9,173.1,430.9 M-33.8,418.7l0.1-2.6h-8.7v-10.3h0.8v9.4h6.5v-9.4h0.9v9.4h1.3v3.5H-33.8z M-28.2,408.9
	c2.7,0,3.6,2.2,3.3,4.1h-5.9c0.1,1.8,1.6,2.5,3.2,2.5c0.9,0,1.7-0.2,2.4-0.6v0.8c-0.7,0.3-1.5,0.5-2.4,0.5c-2,0-3.9-1.1-3.9-3.7
	C-31.7,410.1-29.9,408.9-28.2,408.9 M-28.1,409.6c-1.4,0-2.7,0.9-2.7,2.6h5.1C-25.5,411.2-26.1,409.6-28.1,409.6 M-22.7,416.1V409
	h0.8v3.1h4.6V409h0.9v7.1h-0.9V413h-4.6v3.1H-22.7z M-11.9,416.1v-6.3h-2.8V409h6.4v0.8h-2.8v6.3H-11.9z M-2.8,408.9
	c2,0,3.5,1.5,3.5,3.7s-1.5,3.7-3.5,3.7c-1.4,0-2.4-0.7-2.9-1.5v4.6h-0.8V409h0.7v1.5C-5.2,409.6-4.2,408.9-2.8,408.9 M-2.9,409.6
	c-1.4,0-2.4,0.9-2.8,2v2c0.4,1.1,1.5,2,2.8,2c1.5,0,2.8-1.1,2.8-2.9C-0.1,410.8-1.3,409.6-2.9,409.6 M7.1,416.1V409H8v3.1h4.5V409
	h0.8v7.1h-0.8V413H8v3.1H7.1z M22.2,415.5c0.2,0,0.4-0.1,0.6-0.1v0.7c-0.2,0.1-0.5,0.2-0.7,0.2c-0.6,0-1.1-0.3-1.2-1.1
	c-0.7,0.7-1.7,1.2-2.9,1.2s-2.4-0.7-2.4-2.1c0-1.8,1.6-2.4,3.1-2.4c0.7,0,1.5,0.1,2.2,0.3v-0.5c0-1.2-0.8-2-2.3-2
	c-1.1,0-2,0.2-2.5,0.5v-0.8c0.6-0.2,1.5-0.4,2.6-0.4c1.9,0,3,1.1,3,2.9v3C21.6,415.3,21.9,415.5,22.2,415.5 M18.1,415.6
	c1.1,0,2.1-0.5,2.8-1.4v-1.3c-0.7-0.2-1.4-0.3-2.1-0.3c-1.1,0-2.4,0.4-2.4,1.5C16.3,415.1,17.2,415.6,18.1,415.6 M29.5,409h0.9
	l-3.6,8.2c-0.7,1.6-1.5,2.3-2.5,2.3c-0.2,0-0.5,0-0.7-0.1v-0.7c0.2,0.1,0.4,0.1,0.7,0.1c0.8,0,1.5-0.6,2-1.8l0.3-0.8l-3.5-7.2H24
	l3,6.2L29.5,409z M37,416.1v-2.6c-0.7,0.3-1.4,0.4-2.3,0.4c-1.7,0-2.8-0.8-2.8-2.5V409h0.8v2.4c0,1.4,0.8,1.8,2.2,1.8
	c0.8,0,1.4-0.1,2-0.4v-3.7h0.8v7.1C37.9,416.1,37,416.1,37,416.1z M40.5,416.1V409h0.9v3.1h4.5V409h0.9v7.1h-0.9V413h-4.5v3.1H40.5z
	 M52.7,408.9c2,0,3.7,1.3,3.7,3.7s-1.8,3.7-3.7,3.7S49,415,49,412.6S50.8,408.9,52.7,408.9 M52.7,409.6c-1.5,0-2.9,1.1-2.9,2.9
	c0,1.9,1.3,2.9,2.9,2.9c1.5,0,2.8-1.1,2.8-2.9C55.6,410.7,54.2,409.6,52.7,409.6 M58.5,416.1V409h0.8v5.8l4.8-5.8h0.7v7.1H64v-5.8
	l-4.8,5.8H58.5z M61.7,407.8c-0.7,0-1.4-0.2-2-0.6v-0.8c0.7,0.5,1.3,0.7,2,0.7s1.3-0.2,2-0.7v0.9C63.1,407.7,62.4,407.8,61.7,407.8
	 M71.8,416.1V409h0.8v3.1h1.6l2.6-3.1h0.9l-2.8,3.5l3.2,3.6h-1l-2.9-3.2h-1.6v3.2H71.8z M83.5,408.9c2,0,3.5,1.5,3.5,3.7
	s-1.5,3.7-3.5,3.7c-1.4,0-2.4-0.7-2.9-1.5v4.6h-0.8V409h0.7v1.5C81.2,409.6,82.1,408.9,83.5,408.9 M83.4,409.6c-1.4,0-2.4,0.9-2.8,2
	v2c0.4,1.1,1.5,2,2.8,2c1.5,0,2.8-1.1,2.8-2.9C86.2,410.8,85,409.6,83.4,409.6 M95.5,415.5c0.2,0,0.4-0.1,0.6-0.1v0.7
	c-0.2,0.1-0.5,0.2-0.7,0.2c-0.6,0-1.1-0.3-1.2-1.1c-0.7,0.7-1.7,1.2-2.9,1.2s-2.4-0.7-2.4-2.1c0-1.8,1.6-2.4,3.1-2.4
	c0.7,0,1.5,0.1,2.2,0.3v-0.5c0-1.2-0.8-2-2.3-2c-1.1,0-2,0.2-2.5,0.5v-0.8c0.6-0.2,1.5-0.4,2.6-0.4c1.9,0,3,1.1,3,2.9v3
	C94.8,415.3,95.2,415.5,95.5,415.5 M91.3,415.6c1.1,0,2.1-0.5,2.8-1.4v-1.3c-0.7-0.2-1.4-0.3-2.1-0.3c-1.1,0-2.4,0.4-2.4,1.5
	C89.5,415.1,90.4,415.6,91.3,415.6 M100.9,408.9c0.7,0,1.5,0.2,2.1,0.6v0.8c-0.6-0.4-1.3-0.7-2-0.7c-1.5,0-3.1,0.9-3.1,3
	c0,2,1.5,2.9,3,2.9c0.8,0,1.5-0.2,2.2-0.6v0.8c-0.7,0.3-1.5,0.5-2.4,0.5c-1.9,0-3.7-1.1-3.7-3.7C97.1,410,99.1,408.9,100.9,408.9
	 M108.3,408.9c2,0,3.7,1.3,3.7,3.7s-1.8,3.7-3.7,3.7s-3.7-1.3-3.7-3.7S106.4,408.9,108.3,408.9 M108.3,409.6c-1.5,0-2.9,1.1-2.9,2.9
	c0,1.9,1.3,2.9,2.9,2.9c1.5,0,2.8-1.1,2.8-2.9C111.2,410.7,109.9,409.6,108.3,409.6 M115.8,416.1v-6.3h-2.7V409h6.2v0.8h-2.6v6.3
	H115.8z M121.1,416.1V409h0.8v2.6h2.4c1.7,0,2.7,1,2.7,2.3c0,1.3-1.1,2.3-2.7,2.3L121.1,416.1L121.1,416.1z M121.9,415.3h2.3
	c1.2,0,2-0.6,2-1.5c0-0.9-0.7-1.5-2-1.5h-2.3V415.3z M128.5,409h0.8v7.1h-0.8V409z"/>
</svg>
