<svg width="126" height="126" viewBox="0 0 126 126" fill="none" xmlns="http://www.w3.org/2000/svg">
<rect opacity="0.7" width="77.2059" height="77.2059" transform="translate(63 8.40735) rotate(45)" fill="#FF887A"/>
<path d="M1.00598 0.263651C1.31636 0.0880196 1.66374 0 2.01164 0C2.3586 0 2.70587 0.0880196 3.01762 0.263651L26.9939 17.2971C27.6152 17.648 28 18.2978 28 19.0003C28 19.7027 27.6163 20.3524 26.9939 20.7029L3.01762 37.7371C2.39538 38.0876 1.62832 38.0876 1.0065 37.7371C0.384157 37.3853 1.0811e-07 36.7354 1.0811e-07 36.0333V1.96669C1.0811e-07 1.26457 0.383532 0.614915 1.00598 0.263651Z" transform="translate(55 44)" fill="#FFF0F3"/>
<rect x="1" y="1" width="87.0955" height="87.0955" transform="translate(63) rotate(45)" stroke="#FF887A" stroke-width="2"/>
</svg>
